<svg width="1022" height="1023" viewBox="0 0 1022 1023" fill="none" xmlns="http://www.w3.org/2000/svg">
<path d="M493.769 0.296239C775.737 -9.21744 1012.06 211.589 1021.69 493.559C1031.33 775.529 810.635 1011.95 528.674 1021.72C246.542 1031.48 9.94535 810.61 0.30389 528.467C-9.33757 246.322 211.629 9.81635 493.769 0.296239ZM535.098 1012.85C812.284 999.545 1026.18 764.021 1012.83 486.83C999.467 209.64 763.913 -4.22359 486.733 9.18102C209.618 22.5821 -4.1796 258.074 9.17501 535.2C22.5296 812.323 257.98 1026.16 535.098 1012.85Z" fill="black"/>
<path d="M496.132 26.023C763.889 17.8145 987.631 228.154 995.972 495.911C1004.31 763.67 794.083 987.523 526.336 995.992C258.406 1004.46 34.3716 794.058 26.0283 526.117C17.6844 258.175 228.194 34.2368 496.132 26.023ZM521.076 991.766C786.625 986.202 997.363 766.382 991.74 500.83C986.118 235.277 766.257 24.5793 500.707 30.2634C235.247 35.9458 24.6361 255.726 30.2587 521.196C35.8813 786.664 255.61 997.33 521.076 991.766Z" fill="black"/>
<path d="M522.344 284.926C548.079 282.137 587.081 289.191 606.999 305.84C619.332 313.615 629.928 341.671 617.204 353.13C584.567 381.262 556.98 324.191 538.219 307.25C499.521 272.313 430.101 317.025 402.378 349.749C356.626 403.754 326.106 483.162 327.891 554.319C328.978 597.676 357.079 639.993 403.971 634.914C465.805 628.368 528.569 581.784 572.562 540.958C592.662 522.207 611.634 502.284 629.373 481.285C610.793 462.905 588.285 458.91 563.117 459.93C550.142 460.456 538.873 461.8 527.149 467.749C508.148 477.391 502.268 497.833 500.491 517.602C499.141 532.22 500.742 553.846 484.988 561.502C480.439 563.735 475.156 563.928 470.458 562.028C456.032 556.353 457.871 532.716 463.402 521.278C480.267 486.723 518.721 465.09 552.632 450.209C585.023 435.992 622.406 435.695 655.002 449.487C685.295 409.409 712.409 364.041 737.804 320.591C740.37 316.198 750.084 296.399 753.082 294.675C753.427 294.866 753.813 294.995 754.117 295.246C756.589 297.286 758.74 307.208 760.745 310.679C762.855 314.331 767.268 316.558 767.548 321.091C768.25 332.419 713.444 404.959 703.128 418.213C692.654 431.549 681.929 444.691 670.964 457.63C672.618 458.713 674.243 459.838 675.839 461.002C710.796 486.971 706.862 527.059 683.057 559.357C671.239 573.724 658.912 583.613 644.423 594.935C602.347 627.795 553.526 651.794 507.359 678.651C528.435 675.436 548.371 674.022 569.704 675.723C600.523 678.183 634.142 690.452 664.564 691.685C672.858 692.012 681.157 691.252 689.246 689.417C705.717 685.624 721.55 675.98 725.197 658.2C726.132 653.623 724.823 648.86 727.249 644.955C729.37 643.506 728.242 643.833 730.715 643.804C731.697 644.447 733.07 645.353 733.006 646.633C732.433 658.135 718.844 686.746 713.683 695.046C673.834 759.158 571.82 708.483 513.718 706.192C494.669 705.444 476.166 707.6 457.507 711.984C452.654 713.118 448.237 716.531 443.226 717.66L442.498 717.186C442.983 715.251 444.248 713.954 445.907 712.797C472.831 694.017 501.8 678.131 529.107 659.877C541.369 651.8 553.187 643.062 564.514 633.71C600.933 603.48 655.043 545.92 638.199 494.694C627.111 505.754 611.091 520.132 598.723 530.735C529.884 589.756 440.101 662.25 347.404 673.04C327.488 675.354 295.166 671.848 279.609 658.323C262.297 642.91 255.273 613.364 254.645 590.826C250.829 453.948 355.626 332.732 482.034 291.644C494.579 287.567 509.527 285.769 522.344 284.926Z" fill="black"/>
<path d="M442.034 874.647C453.287 873.238 464.428 877.984 471.209 887.073C477.99 896.162 479.367 908.196 474.813 918.583C470.259 928.969 460.477 936.105 449.198 937.274C432.013 939.057 416.596 926.672 414.632 909.505C412.669 892.339 424.891 876.792 442.034 874.647ZM450.278 929.723C463.486 927.321 472.214 914.625 469.724 901.434C467.234 888.242 454.479 879.603 441.305 882.181C428.257 884.735 419.717 897.342 422.183 910.406C424.649 923.475 437.197 932.102 450.278 929.723Z" fill="black"/>
<path d="M573.912 876.295C591.084 873.226 607.484 884.682 610.5 901.866C613.522 919.044 602.008 935.41 584.819 938.379C567.705 941.337 551.422 929.886 548.418 912.779C545.413 895.671 556.811 879.352 573.912 876.295ZM583.527 931.149C596.567 928.922 605.398 916.636 603.358 903.567C601.312 890.504 589.161 881.491 576.063 883.344C567.425 884.565 560.107 890.346 556.928 898.476C553.742 906.601 555.18 915.812 560.692 922.575C566.197 929.343 574.923 932.622 583.527 931.149Z" fill="black"/>
<path d="M155.592 274.584C172.795 271.301 189.374 282.674 192.506 299.905C195.638 317.136 184.121 333.616 166.863 336.597C149.818 339.541 133.585 328.196 130.492 311.177C127.399 294.158 138.601 277.826 155.592 274.584ZM166.884 329.141C175.396 327.194 182.199 320.81 184.683 312.439C187.168 304.067 184.949 295.006 178.877 288.73C172.805 282.454 163.822 279.937 155.374 282.144C142.584 285.485 134.844 298.471 137.988 311.31C141.133 324.149 153.999 332.089 166.884 329.141Z" fill="black"/>
<path d="M804.908 188.61C807.398 189.681 824.394 208.275 826.025 211.408C838.538 235.46 816.281 261.477 789.764 253.953C779.366 249.556 770.383 238.389 762.241 230.02C775.801 216.314 790.968 202.14 804.908 188.61ZM772.089 230.532C778.016 236.655 784.328 244.26 792.172 247.515C812.763 252.513 830.367 230.376 818.38 212.335C816.545 209.572 807.777 199.807 805.001 198.621C794.282 209.139 783.025 220.293 772.089 230.532Z" fill="black"/>
<path d="M859.907 645.914L913.783 671.456C908.757 682.514 904.058 695.846 894.858 703.503C879.44 714.135 858.767 708.582 849.9 692.234C841.782 677.266 853.162 659.597 859.907 645.914ZM892.14 696.711C898.207 690.346 900.96 683.087 904.689 675.167C890.995 668.475 876.248 662.016 862.858 655.096C858.556 664.156 851.099 676.681 855.272 686.547C861.076 700.283 880.194 706.572 892.14 696.711Z" fill="black"/>
<path d="M902.836 321.532C904.987 323.809 908.067 333.85 909.768 337.231C916.53 350.659 912.643 366.777 894.858 364.889C889.446 364.315 886.12 360.822 882.958 356.584C876.698 365.298 870.503 374.062 864.389 382.878C863.209 380.358 861.987 377.295 860.883 374.7L866.166 367.303C870.439 361.305 874.758 355.346 879.142 349.428L875.57 341.119L850.993 351.483L848.083 344.962C866.067 336.998 884.717 329.374 902.836 321.532ZM881.918 338.378C884.349 344.477 886.804 351.417 891.503 356.103C903.052 362.419 907.997 350.318 904.321 341.101C903.578 339.235 900.749 332.02 899.417 330.907L881.918 338.378Z" fill="black"/>
<path d="M645.896 859.935C648.035 859.783 650.169 859.631 652.308 859.929C656.294 860.52 659.865 862.723 662.185 866.026C668.831 875.57 663.939 884.501 655.388 890.264L680.368 910.417L671.999 913.433C668.404 910.411 649.567 893.923 647.065 893.742L639.531 896.39C642.202 904.707 645.382 913.457 648.257 921.745L641.39 924.071C635.188 905.443 628.251 886.389 621.757 867.808C630.104 864.617 637.222 862.08 645.896 859.935ZM630.735 871.578C632.845 877.622 635.2 884.022 637.158 890.083L641.91 888.452C647.579 886.436 653.623 884.735 656.475 879.048C658.947 874.126 657.363 869.696 652.331 867.709C649.444 866.575 648.444 866.704 645.388 866.908C640.18 868.206 635.773 869.807 630.735 871.578Z" fill="black"/>
<path d="M102.917 387.052C116.745 386.17 122.347 392.653 122.82 405.786C132.67 402.386 143.281 399.187 153.251 395.992C152.656 398.813 151.945 401.7 151.29 404.516L121.333 413.809L119.271 422.452L130.088 425.259C134.716 426.195 140.552 427.81 145.239 428.957L143.523 435.976C124.207 431.088 104.861 426.319 85.4867 421.667C88.3214 409.314 89.8825 392.123 102.917 387.052ZM93.6266 416.353C98.2492 417.352 102.849 418.452 107.424 419.652L112.746 420.959C115.225 410.297 121.085 395.076 104.587 394.627C96.3509 398.509 95.5881 408.179 93.6266 416.353Z" fill="black"/>
<path d="M679.731 108.578C681.233 109.022 684.576 110.489 686.172 111.133C686.19 132.793 686.055 154.453 685.769 176.112L678.06 172.814C678.06 167.558 678.2 162.302 678.492 157.054C671.677 153.888 664.073 150.762 657.13 147.739L651.115 145.177L639.636 156.245L632.126 152.976C647.609 138.098 664.038 123.387 679.731 108.578ZM656.428 140.195L662.957 142.983L678.469 149.67C678.586 144.857 679.55 121.987 678.936 118.616C671.338 125.712 663.839 132.905 656.428 140.195Z" fill="black"/>
<path d="M869.264 396.041C888.417 400.594 913.818 404.688 933.608 408.495C933.965 410.628 934.462 412.921 934.883 415.06C925.017 421.928 914.876 429.469 905.086 436.527C901.112 440.031 887.371 449.422 882.257 453.148L880.322 444.893L893.356 435.712C891.018 427.806 888.522 414.96 886.716 406.581C881.959 406.045 875.828 404.839 871 404.035L869.264 396.041ZM899.247 431.599L913.847 421.33L925.075 413.596L893.905 408.027L899.247 431.599Z" fill="black"/>
<path d="M735.379 136.46C737.524 137.037 741.066 139.812 742.989 141.194L743.561 201.684C752.516 188.133 762.3 174.31 771.517 160.875L777.613 164.999C767.291 178.94 753.316 199.646 743.807 214.266L736.355 209.245C735.642 189.704 735.94 168.193 735.811 148.502C728.336 160.741 716.22 177.127 707.78 189.561L701.824 185.426C711.959 169.62 724.624 152.113 735.379 136.46Z" fill="black"/>
<path d="M582.276 79.6753L589.138 81.0027C587.77 88.8208 585.549 97.9715 583.848 105.832L614.685 112.658L620.109 87.9014L627.193 89.438C625.977 95.3331 615.199 146.375 613.937 147.652L611.833 147.297C610.103 146.981 608.817 146.987 607.607 145.777C607.94 141.223 612.137 124.29 613.317 119.133L582.305 112.442C580.254 121.479 578.319 130.543 576.502 139.63C574.099 139.068 571.691 138.52 569.277 137.986L577.437 100.713C578.804 94.4757 580.505 85.5506 582.276 79.6753Z" fill="black"/>
<path d="M876.897 588.511C895.495 594.029 915.759 599.085 934.596 604.152C931.423 616.333 928.132 628.479 924.73 640.595C922.755 639.934 920.364 639.315 918.325 638.725L926.221 609.424C923.234 608.548 910.68 604.275 908.237 605.28L907.617 607.168C905.449 615.468 903.222 623.75 900.942 632.021C898.914 631.378 896.506 630.799 894.42 630.244L901.766 602.802C895.191 600.879 888.043 599.102 881.386 597.326C879.171 607.127 875.898 618.396 873.308 628.192L866.786 626.386C870.065 613.738 873.437 601.107 876.897 588.511Z" fill="black"/>
<path d="M136.017 523.686C136.789 524.773 137.233 530.957 137.45 532.915C129.282 539.689 121.171 546.534 113.117 553.442C122.573 558.241 131.957 563.18 141.267 568.259C141.672 571.187 141.945 574.156 142.248 577.102C131.437 570.842 119.514 564.711 108.452 558.779C102.096 565.12 92.3952 573.25 85.4984 579.405C83.8478 581.024 84.6521 580.878 83.0068 580.977C81.7911 579.142 81.8109 575.086 81.6274 572.684L102.805 554.167C95.2988 549.754 85.8502 545.178 78.0049 540.806L77.0054 532.161C85.6959 536.258 98.6286 544.009 107.355 548.866L136.017 523.686Z" fill="black"/>
<path d="M201.424 203.308C203.568 204.862 207.267 208.127 209.197 210.02C217.111 217.784 229.154 225.848 235.3 234.934C248.032 253.754 222.369 279.056 203.417 264.647C193.548 257.143 184.618 248.597 175.342 240.244C173.892 239.147 173.166 238.803 172.408 237.141C172.598 235.124 174.812 233.192 176.271 231.567C185.704 239.01 204.08 260.273 216.316 261.509C226.932 262.58 237.103 247.287 227.611 236.977C218.305 226.869 207.271 217.979 196.784 208.608L201.424 203.308Z" fill="black"/>
<path d="M130.132 599.254C156.642 597.308 163.837 630.91 144.289 640.601C133.848 645.779 113.584 650.765 101.764 654.342L99.6736 647.48C108.978 644.464 118.979 641.647 128.389 638.824C138.81 635.966 151.639 630.746 147.884 617.122C146.852 613.229 144.219 609.956 140.639 608.121C133.377 604.374 123.905 608.08 116.625 610.225C108.048 612.75 99.4608 615.386 90.9001 617.969L88.8906 611.119C99.3632 607.94 120.177 601.037 130.132 599.254Z" fill="black"/>
<path d="M79.5853 456.963C93.3671 457.496 108.311 458.276 121.898 460.163C133.482 461.771 139.21 471.135 139.297 482.043C139.535 511.885 102.872 503.825 83.3762 502.197C81.2989 502.207 78.9511 502.484 77.2491 501.478C76.1813 499.664 76.9277 496.904 77.2252 494.663C85.6854 495.493 94.2894 495.819 102.728 496.492C114.346 497.557 131.422 499.063 132.596 483.082C133.959 464.511 111.438 466.236 99.071 465.266C92.2929 464.734 85.6988 464.44 79.0727 464.037L79.5853 456.963Z" fill="black"/>
<path d="M250.387 162.042C252.789 161.843 255.769 161.921 258.224 161.917C257.727 164.62 257.513 166.413 256.459 168.979C248.8 170.717 236.444 172.914 239.226 183.93C244.386 202.138 266.909 178.456 278.464 187.42C295.994 201.02 281.895 220.162 264.34 223.831C261.681 223.975 260.317 224.205 258.322 222.895C257.552 220.766 258.461 218.001 258.939 215.664C269.276 217.208 281.615 211.212 277.99 198.396C275.746 190.461 264.376 193.764 259.232 196.124C254.723 197.961 245.841 200.691 241.256 197.902C222.078 186.239 234.377 167.4 250.387 162.042Z" fill="black"/>
<path d="M849.427 260.251C853.156 259.95 856.517 260.083 860.164 261.014C868.031 263.027 874.758 268.118 878.838 275.142C883.11 282.487 883.858 288.682 881.778 296.705L874.676 293.946C875.471 289.629 875.898 287.13 874.588 282.701C873.04 277.316 869.34 272.809 864.36 270.247C850.163 262.86 834.955 271.577 828.637 285.15C824.394 300.727 832.477 311.389 847.638 314.624C847.235 316.88 847.007 319.379 846.75 321.673C833.126 318.845 823.605 311.311 820.946 297.122C819.49 289.287 821.209 281.196 825.727 274.631C831.583 266.066 839.491 262.141 849.427 260.251Z" fill="black"/>
<path d="M367.919 853.541C373.352 852.962 378.842 853.839 383.824 856.083C391.636 859.584 395.96 864.506 398.902 872.297L391.401 874.144C380.468 845.662 342.777 865.277 348.149 891.269C349.542 898.014 352.753 902.1 358.291 905.94C366.573 910.563 372.543 910.242 380.8 906.32L384.192 912.755C381.712 913.871 379.2 915.017 376.53 915.572C368.478 917.168 360.122 915.444 353.363 910.785C346.651 906.209 342.081 899.107 340.701 891.1C337.616 872.987 349.509 856.422 367.919 853.541Z" fill="black"/>
<path d="M940.19 469.051C942.224 468.794 941.516 468.606 943.252 469.258C944.322 475.263 944.965 498.383 945.315 505.894L938.617 506.292C938.156 496.307 937.612 486.326 936.981 476.351C930.394 476.824 924.234 476.938 917.582 477.585C918.143 486.69 918.588 495.801 918.915 504.918C917.588 505.468 914.064 505.544 912.427 505.661C911.767 496.412 911.258 487.155 910.902 477.892C901.965 478.175 893.04 478.649 884.121 479.313L883.724 471.996L940.19 469.051Z" fill="black"/>
<path d="M938.249 528.894C940.394 528.976 942.907 529.25 945.076 529.432C943.106 544.669 942.206 560.509 940.172 575.892L933.538 575.144C934.392 568.557 934.818 562.163 935.829 555.476C927.507 554.933 917.728 553.676 909.318 552.817C900.475 551.964 891.638 551.052 882.812 550.081L883.478 542.869C899.183 545.423 919.681 546.329 936.139 548.468C937.057 542.606 937.641 534.937 938.249 528.894Z" fill="black"/>
<path d="M501.175 882.058C503.589 882.058 506.102 882.187 508.522 882.274L507.592 935.328C516.564 935.34 525.851 935.626 534.875 935.714L534.788 942.675C525.226 941.769 510.228 942.055 500.304 941.991C500.444 922.008 500.731 902.036 501.175 882.058Z" fill="black"/>
<path d="M165.064 654.605C167.405 655.64 179.158 681.147 181.195 685.32C164.434 692.749 144.845 703.018 128.231 711.189L127.687 711.201C126.285 710.073 125.093 706.946 124.261 705.169C140.102 697.267 155.987 689.458 171.916 681.731L159.78 657.387L165.064 654.605Z" fill="black"/>
<path d="M494.333 96.7528C512.508 96.111 530.708 96.5009 548.839 97.9218C550.902 98.0983 551.726 97.9908 552.836 99.2965C551.077 101.409 540.451 99.1919 537.096 99.0639C528.248 98.7272 519.457 98.2742 510.596 98.3058C447.78 98.3987 385.845 113.078 329.671 141.187C317.202 147.372 304.556 154.449 292.945 162.073C291.455 163.05 291.021 163.383 289.706 163.045L289.673 161.789C293.598 157.681 307.383 150.545 312.938 147.407C368.596 116.534 430.734 99.1825 494.333 96.7528Z" fill="black"/>
<path d="M857.709 725.234C858.276 726.181 858.732 726.45 858.352 727.204C854.377 735.071 846.411 745.639 841.262 752.547C802.389 804.789 751.697 847.094 693.344 875.997L692.642 874.758C693.402 873.571 722.83 857.246 727.383 854.406C738.851 847.246 749.956 839.519 760.657 831.254C788.092 810.049 812.78 785.501 834.137 758.176C838.982 751.922 843.623 745.516 848.048 738.958C850.923 734.732 854.448 728.923 857.709 725.234Z" fill="black"/>
<path d="M161.899 723.259L163.814 723.738C165.813 725.568 172.748 736.328 174.924 739.508C178.486 744.692 182.183 749.783 186.01 754.774C203.078 777.265 222.463 797.898 243.845 816.332C263.084 833.043 283.881 847.871 305.952 860.613C309.312 862.53 316.996 866.248 318.587 869.264C313.184 868.697 298.124 858.731 292.517 855.23C246.843 826.432 207.218 789.008 175.86 745.054C172.159 739.87 164.375 728.888 161.899 723.259Z" fill="black"/>
<path d="M849.538 720.547C850.152 721.541 850.602 721.751 850.204 722.528C846.358 730.173 838.784 740.174 833.769 746.919C795.796 797.909 746.32 839.221 689.369 867.493C688.866 867.048 689.194 867.387 688.668 866.253C689.924 864.027 696.833 861.32 699.282 859.988C716.752 850.513 733.38 839.992 749.318 828.122C778.513 806.443 804.627 780.895 826.954 752.191C835.148 741.565 841.829 730.711 849.538 720.547Z" fill="black"/>
<path d="M840.853 716.274L841.928 716.73L842.18 717.724C837.252 726.625 826.264 741.314 819.929 749.368C782.692 796.688 739.067 831.301 685.781 858.696L684.746 858.106C685.05 855.838 692.508 852.945 694.863 851.647C702.718 847.339 710.451 842.815 718.055 838.081C770.687 805.017 806.521 767.247 840.853 716.274Z" fill="black"/>
<path d="M171.38 718.688C172.189 719.132 172.688 719.483 173.204 720.29C197.495 758.486 227.876 792.029 263.214 820.301C282.231 835.509 301.362 847.24 322.288 859.403L322.247 861.344C317.58 859.736 302.368 850.379 297.847 847.532C254.361 820.143 216.467 784.759 186.176 743.242C181.579 736.895 176.802 730.232 172.641 723.586C171.011 720.985 170.798 720.962 171.38 718.688Z" fill="black"/>
<path d="M179.085 714.568C182.206 715.304 189.454 727.485 191.777 730.828C198.106 739.882 204.803 748.672 211.85 757.171C236.226 786.284 264.698 811.709 296.377 832.64C306.19 839.151 316.231 844.855 326.271 850.969C326.483 851.495 326.695 852.021 326.907 852.541C324.841 852.436 323.196 851.518 321.389 850.501C268.763 820.997 222.991 779.983 188.651 730.314C185.517 725.778 180.648 719.682 179.085 714.568Z" fill="black"/>
<path d="M108.126 346.992C126.527 354.425 145.345 361.588 163.851 368.813C162.907 370.907 162.045 373.463 161.237 375.649C146.263 368.738 121.598 359.966 105.481 353.655L108.126 346.992Z" fill="black"/>
<path d="M361.876 134.592C409.217 114.002 467.431 105.092 518.814 105.829C524.361 105.909 546.699 106.49 550.539 108.549C543.765 109.725 533.099 108.157 526.015 107.879C469.706 105.671 416.578 115.618 364.052 135.868L361.876 134.592Z" fill="black"/>
<path d="M366.5 142.906C416.882 122.816 470.909 113.485 525.109 115.511C528.943 115.662 546.208 116.297 548.611 117.539L548.277 118.403C543.59 118.81 537.582 118.114 532.806 117.813C475.811 114.218 419.977 124.109 366.821 144.944L366.5 142.906Z" fill="black"/>
<path d="M364.052 135.868C347.682 142.513 331.736 150.16 316.305 158.765C312.948 160.655 297.319 171.019 295.01 170.839L294.746 169.626C299.532 162.733 351.748 138.598 361.876 134.592L364.052 135.868Z" fill="black"/>
<path d="M366.821 144.944C355.843 149.442 345.053 154.383 334.476 159.755C327.011 163.575 319.665 167.624 312.449 171.896C307.978 174.57 305.294 177.47 300.107 178.469L299.653 177.991C306.083 169.829 355.485 147.453 366.5 142.906L366.821 144.944Z" fill="black"/>
</svg>
