<svg width="740" height="400" viewBox="0 0 740 400" fill="none" xmlns="http://www.w3.org/2000/svg">
<path d="M0 0H740V400H0V0Z" fill="white"/>
<path d="M264.916 195.82C242.805 215.904 212.05 243.058 181.408 248.232C174.766 249.354 164.132 248.94 158.598 244.68C153.606 240.838 151.681 233.367 150.983 227.281C148.755 207.863 157.614 185.372 169.413 170.268C182.495 153.52 205.378 137.33 226.823 134.498C236.061 133.576 247.219 134.099 254.863 139.93C258.888 142.999 261.957 149.88 258.27 154.194C257.177 155.489 255.604 156.282 253.914 156.392C245.363 157.03 240.043 144.971 234.582 140.424C222.172 130.091 201.607 144.417 193.565 154.378C180.389 170.699 171.605 193.545 172.443 214.676C172.702 221.204 176.199 229.551 181.306 233.589C185.406 236.821 190.493 237.872 195.612 237.332C219.698 234.788 247.023 209.936 261.995 192.03C259.345 189.502 256.107 187.676 252.573 186.718C246.707 185.084 236.373 185.097 231.176 188.219C222.911 193.187 224.388 202.217 222.695 210.51C221.664 215.56 217.649 218.785 212.989 214.547C210.961 212.702 211.39 206.937 212.496 204.409C216.888 194.384 227.878 188.306 237.289 183.769C247.814 178.603 258.758 178.545 269.661 182.652C277.122 172.403 284.096 161.809 290.561 150.905C293.457 146.06 296.05 140.649 299.157 136.022C299.382 137.172 299.531 138.453 299.962 139.541C300.608 141.167 302.676 143.509 302.839 145.16C303.267 149.5 278.689 179.93 274.282 185.019C276.409 186.444 279.709 189.401 280.846 191.549C295.086 218.474 241.148 240.74 225.637 250.295C232.543 249.614 237.52 249.166 244.465 249.573C258.453 250.393 281.155 261.712 290.236 245.684L290.969 246.612C290.86 246.914 290.748 247.215 290.632 247.514C289.13 251.39 287.065 255.971 283.98 258.869C270.048 271.957 244.541 259.261 228.098 258.481C218.692 258.035 213.253 259.065 204.997 262.729C209.67 258.594 216.742 254.383 222.181 251.184C235.717 243.222 249.457 233.357 258.575 220.371C264.222 212.33 266.657 205.69 264.916 195.82Z" fill="#55585A"/>
<path d="M327.724 167.501C344.412 166.633 368.699 167.561 367.012 190.705C365.538 210.959 349.16 213.582 332.697 212.407L332.07 212.508C331.024 213.647 331.47 236.766 331.472 240.197L321.647 240.12L321.634 167.745L327.724 167.501Z" fill="#55585A"/>
<path d="M331.498 176.508C332.399 176.448 333.3 176.401 334.202 176.369C343.198 175.992 356.341 176.581 356.674 188.818C356.808 193.744 355.939 196.369 352.523 199.935C346.319 204.66 338.854 203.816 331.509 203.405C331.414 194.49 331.492 185.435 331.498 176.508Z" fill="white"/>
<path d="M396.012 166.405C397.996 166.559 398.27 166.842 399.015 168.704C400.344 172.044 401.634 175.425 402.856 178.808C410.259 199.307 418.476 219.618 425.666 240.18C422.046 240.131 418.353 240.161 414.722 240.152C413.099 235.054 411.419 229.973 409.688 224.91L396.467 224.936L382.589 224.909C381.555 228.81 378.719 236.222 377.32 240.239C373.736 240.124 369.892 240.167 366.286 240.141C367.583 236.055 370.21 230.034 371.882 225.897L382.242 200.255L390.812 178.846C392.316 175.085 394.234 169.824 396.012 166.405Z" fill="#55585A"/>
<path d="M396.482 186.315C397.107 186.791 405.8 214.298 406.852 217.654L385.382 217.61C387.279 211.001 390.209 204.235 392.287 197.639C393.436 193.993 394.95 189.803 396.482 186.315Z" fill="white"/>
<path d="M471.045 167.773C473.13 167.653 474.525 167.222 475.826 169.055C487.396 185.366 500.421 201.412 511.604 217.943L511.601 167.767L521.129 167.801L521.086 219.621C521.089 223.362 521.461 238.194 520.97 240.754L519.626 241.659C518.795 241.321 518.069 240.956 517.523 240.232C513.548 234.975 509.657 229.367 505.849 224.011C497.397 212.036 488.881 200.106 480.299 188.222C480.682 204.95 480.335 223.299 480.31 240.119L471.074 240.196C470.847 232.126 471.031 223.085 471.031 214.927L471.045 167.773Z" fill="#55585A"/>
<path d="M532.648 167.841C538.599 167.571 546.325 167.777 552.427 167.777L589.807 167.78L589.778 176.611C581.749 176.581 573.72 176.595 565.695 176.654C565.356 189.421 565.638 203.4 565.638 216.26C565.71 224.233 565.681 232.206 565.558 240.177L555.712 240.129V176.64C548.175 176.477 540.214 176.597 532.645 176.59L532.648 167.841Z" fill="#55585A"/>
<path d="M440.047 167.773C443.321 167.725 446.771 167.805 450.059 167.825L450.07 240.109L440.051 240.175C439.791 216.248 440.015 191.727 440.047 167.773Z" fill="#55585A"/>
<path d="M290.236 245.684C290.582 243.987 290.714 242.029 291.745 240.783L292.134 240.992C292.355 242.988 291.607 244.693 290.969 246.612L290.236 245.684Z" fill="#222224"/>
</svg>
