<svg width="653" height="480" viewBox="359 187 653 480" fill="none" xmlns="http://www.w3.org/2000/svg">
<path d="M409.413 229.253C416.891 229.186 422.768 233.604 426.247 240.048C432.518 251.667 435.172 265.436 439.612 277.805C445.65 294.622 454.817 310.352 455.69 328.583C457.88 359.128 442.158 386.589 432.242 414.424C429.873 421.074 428.111 428.33 425.726 435.099C415.938 462.89 408.186 491.451 400.551 519.897C396.368 535.485 393.587 563.963 402.102 578.096C405.191 583.134 409.664 587.179 414.987 589.749C438.305 601.278 456.109 580.183 479.205 584.73C491.326 587.116 486.125 602.804 483.839 610.387C480.493 622.515 477.661 639.411 463.446 643.952C432.913 653.706 393.839 649.808 379.055 616.81C368.584 593.435 376.016 567.002 378.839 542.906C382.208 517.282 386.987 491.1 388.659 465.313C392.411 407.426 392.772 349.659 392.549 291.683C392.484 274.649 391.86 255.099 397.439 239.085C399.513 233.132 404.053 231.513 409.413 229.253Z" fill="#202A44"/>
<path d="M505.19 332.69L504.495 332.627C495.882 331.782 487.585 322.755 482.282 316.329C469.731 301.122 463.876 281.632 466.152 261.947C468.188 243.081 477.788 225.846 492.758 214.181C508.877 201.549 526.8 196.544 547.145 199.054C565.98 201.319 583.09 211.131 594.554 226.245C622.64 262.639 608.902 319.077 565.821 336.6C553.5 341.611 530.79 346.052 519.011 339.044C512.678 337.561 510.561 336.415 505.19 332.69Z" fill="#202A44"/>
<path d="M534.042 269.994C548.515 274.357 549.731 284.861 555.314 297.129C569.031 327.272 546.754 339.345 519.011 339.044C512.678 337.561 510.561 336.415 505.19 332.69C496.424 321.984 492.273 316.376 493.192 301.372C493.581 295.028 496.69 288.17 501.777 284.393C507.632 280.046 527.024 271.978 534.042 269.994Z" fill="#202A44"/>
<path d="M830.979 504.134C823.786 494.346 809.608 480.528 797.777 477.319C766.573 468.855 728.144 485.647 718.458 517.98C713.518 533.973 715.276 551.286 723.331 565.959C740.156 596.928 776.359 600.95 805.838 586.2C819.655 579.29 822.095 568.162 825.478 554.309C826.213 551.305 828.332 545.897 831.514 544.505C840.932 541.487 859.669 551.03 863.366 559.77C867.102 568.596 865.552 581.028 862.39 589.206C853.767 611.531 836.46 629.405 814.421 638.74C793.298 647.874 762.489 650.194 740.597 643.152C717.047 635.578 693.872 616.24 683.992 593.325C673.644 569.722 673.136 542.969 682.568 518.988C691.706 496.326 709.186 478.164 731.386 467.563C763.585 452.187 818.74 463.364 833.004 498.96C832.717 500.625 832.71 501.301 833.018 502.964C832.095 503.699 832.095 503.806 830.979 504.134Z" fill="#202A44"/>
<path d="M922.029 428.071C940.399 428.077 958.808 436.673 970.727 450.741C983.187 465.439 984.102 473.946 980.961 492.369C980.446 495.388 980.005 498.092 976.997 500.321C968.735 504.893 960.359 489.211 956.308 483.329C941.736 462.139 909.302 466.893 906.033 493.698C902.303 524.269 949.483 531.382 970.065 543.9C991.395 556.874 1002.23 573.262 999.744 599.672C998.474 613.684 991.228 626.915 980.834 635.957C969.283 645.355 950.773 647.592 936.228 646.361C920.719 644.681 908.473 634.989 898.968 623.102C890.986 611.673 888.012 596.881 889.629 583.1C891.227 569.542 898.854 561.71 909.148 553.843C900.666 565.428 894.917 567.783 894.589 584.981C894.536 596.847 899.282 611.517 908.059 619.852C929.082 639.863 973.314 633.258 972.638 598.476C971.95 562.902 928.387 554.025 903.847 538.421C895.371 533.485 886.748 529.408 879.596 522.445C857.39 500.813 854.749 468.36 877.056 445.57C891.067 431.258 902.604 428.543 922.029 428.071Z" fill="#202A44"/>
<path d="M553.969 453.345C551.666 445.843 550.077 437.999 548.296 430.207C546.571 422.661 545.783 403.84 556.612 402.388C566.072 401.121 575.112 412.011 582.65 416.279C588.734 419.723 595.097 421.998 600.769 426.355C605.288 431.367 606.222 433.273 608.484 439.68C613.128 463.172 608.572 471.205 607.976 490.432C607.42 508.36 605.012 564.487 608.565 579.533C610.977 567.722 613.797 550.826 617.124 539.615C627.875 503.374 647.552 473.459 678.885 452.045C694.32 441.5 728.01 425.82 746.165 428.892L746.205 429.539L745.316 429.657C670.703 440.191 631.05 522.488 625.071 589.666C623.777 604.2 624.474 656.736 598.312 645.691C589.056 640.177 585.226 596.946 583.719 583.618C581.314 560.507 577.371 537.583 571.917 514.996C567.698 498.074 562.487 482.728 558.04 466.218C556.613 462.002 555.301 457.603 553.969 453.345Z" fill="#202A44"/>
<path d="M600.769 426.355C621.052 415.957 642.487 407.537 663.784 399.718C743.077 370.606 830.498 357.218 914.85 363.246C929.977 364.326 945.372 366.723 960.038 370.623C971.241 373.6 979.991 388.566 984.062 398.772C980.406 401.132 975.8 403.939 971.255 404.035C955.038 404.379 938.273 402.469 922.09 401.229C914.035 400.612 905.966 398.397 897.912 397.668C867.229 394.076 837.002 390.416 806.059 392.079C753.598 394.899 705.142 404.426 655.63 422.376C642.2 427.245 628.849 431.824 615.606 437.26C613.562 438.1 609.832 438.726 608.484 439.68C606.222 433.273 605.288 431.367 600.769 426.355Z" fill="#202A44"/>
<path d="M487.869 503.351C484.758 464.158 474.629 424.672 478.845 385.589C481.984 356.482 500.344 353.293 518.614 372.236C523.616 377.421 533.191 381.125 534.308 389.984C536.295 405.753 530.598 422.078 526.673 437.213C523.602 448.848 521.076 460.62 519.101 472.49C518.366 477.577 517.611 482.478 517.206 487.609C514.815 501.219 514.053 515.856 512.99 529.709C510.162 566.574 515.573 603.714 517.765 640.449C517.943 643.355 517.392 645.172 515.833 647.599C513.894 648.824 514.827 648.642 512.516 648.243C506.626 644.206 504.384 635.523 503.425 628.846C497.754 589.361 495.144 550.087 488.987 510.614L487.869 503.351Z" fill="#202A44"/>
<path d="M553.969 453.345C555.301 457.603 556.613 462.002 558.04 466.218C548.295 471.472 526.533 485.072 517.206 487.609C517.611 482.478 518.366 477.577 519.101 472.49C519.218 473.802 519.376 474.562 519.64 475.823L520.629 476.224C524.806 473.348 552.367 455.237 553.969 453.345Z" fill="#202A44"/>
<path d="M488.987 510.614C480.615 519.939 463.463 529.1 454.5 539.326C450.729 543.627 444.005 549.792 439.643 553.693L439.603 553.182C446.774 543.506 478.298 509.263 487.869 503.351L488.987 510.614Z" fill="#202A44"/>
<path d="M830.979 504.134C832.095 503.806 832.095 503.699 833.018 502.964C832.71 501.301 832.717 500.625 833.004 498.96C835.15 502.989 839.743 517.852 837.436 521.471C834.776 517.263 833.472 509.558 830.979 504.134Z" fill="#202A44"/>
</svg>
