<svg width="780" height="176" viewBox="0 301 780 176" fill="none" xmlns="http://www.w3.org/2000/svg">
<path d="M562.453 309.359C588.885 306.148 612.913 324.969 616.128 351.399C619.342 377.829 600.524 401.86 574.096 405.078C547.661 408.296 523.625 389.474 520.41 363.04C517.192 336.605 536.018 312.571 562.453 309.359Z" fill="#202A44"/>
<path d="M564.045 318.216C585.708 315.989 605.033 331.844 607.082 353.524C609.131 375.204 593.116 394.399 571.419 396.269C549.976 398.116 531.051 382.326 529.029 360.899C527.003 339.471 542.633 320.418 564.045 318.216Z" fill="none"/>
<path d="M387.601 309.385C414.097 306.277 438.08 325.285 441.104 351.792C444.128 378.299 425.043 402.222 398.527 405.158C372.129 408.087 348.339 389.105 345.328 362.718C342.318 336.331 361.222 312.48 387.601 309.385Z" fill="#202A44"/>
<path d="M388.869 318.245C410.433 315.968 429.754 331.625 431.997 353.194C434.237 374.764 418.549 394.06 396.977 396.265C375.454 398.467 356.213 382.825 353.976 361.303C351.74 339.783 367.352 320.517 388.869 318.245Z" fill="none"/>
<path d="M86.5362 312.155C91.0715 312.297 95.8711 312.246 100.43 312.263C100.281 343.084 101.01 375.368 100.291 405.996L91.7132 405.874C91.3689 382.794 91.6588 358.86 91.6515 335.728C91.6401 332.836 91.762 329.762 91.8263 326.857C88.9139 331.177 83.5621 345.8 81.3215 351.395C74.159 369.282 65.7356 387.974 59.096 405.981L49.8118 406.008C42.4574 388.252 35.9481 369.916 28.8068 352.073C25.4522 343.691 21.6209 332.56 17.7881 324.629L17.8703 405.939C14.715 405.954 11.5595 405.95 8.40419 405.924C7.91654 375.368 8.22534 342.868 8.42442 312.227C12.9226 312.268 17.4211 312.267 21.9193 312.222C29.3445 329.638 36.0969 347.864 43.4123 365.375C47.2707 374.611 50.3987 384.112 55.1157 392.986C57.3582 384.954 62.3688 373.799 65.4754 365.715C72.3362 347.864 80.156 330.21 86.5362 312.155Z" fill="#202A44"/>
<path d="M455.493 312.186C468.51 312.585 492.131 309.448 502.003 319.212C511.833 328.933 513.456 347.504 503.157 357.823C493.556 367.444 483.535 366.105 471.016 366.366L464.519 366.427L464.416 405.95C461.434 405.928 458.448 405.87 455.466 405.79L455.493 312.186Z" fill="#202A44"/>
<path d="M465.524 321.232C479.917 321.113 501.279 319.206 500.11 340.341C499.787 346.236 498.48 348.918 494.176 352.917C486.148 357.864 473.938 356.85 464.45 357.099L464.485 332.86C464.488 330.934 464.367 322.941 464.732 321.49L465.524 321.232Z" fill="none"/>
<path d="M268.931 312.198C282.194 312.195 307.325 310.182 317.717 318.095C335.996 332.013 332.544 365.394 306.762 368.978C313.202 381.118 322.6 393.786 328.892 405.893C325.409 405.935 321.925 405.912 318.442 405.821C315.479 401.327 312.127 395.427 309.265 390.75C303.121 380.787 297.044 370.784 291.035 360.74C293.733 360.71 296.46 360.627 299.16 360.566C304.766 360.126 309.463 358.955 313.704 355.117C321.318 348.002 321.014 334.422 313.748 327.204C307.583 321.08 298.451 321.251 290.398 321.164C286.606 321.123 282.804 321.199 279.007 321.232L279.127 405.855C275.714 405.912 272.3 405.874 268.888 405.741L268.931 312.198Z" fill="#202A44"/>
<path d="M122.752 312.267L171.63 312.304C171.512 315.023 171.627 318.323 171.654 321.089C158.821 321.402 145.418 321.134 132.488 321.222L132.526 353.931C145.613 354.008 158.7 353.957 171.786 353.777L171.763 363.29C163.317 363.336 154.87 363.328 146.424 363.267C142.495 363.248 136.757 363.056 132.973 363.428C132.287 364.206 132.536 364.562 132.487 365.911L132.51 396.905C145.129 397.343 158.98 397.111 171.681 397.16C171.597 399.971 171.661 403.044 171.661 405.878L122.7 405.939C122.554 374.715 122.572 343.49 122.752 312.267Z" fill="#202A44"/>
<path d="M749.958 309C767.367 306.613 775.19 318.144 776.717 333.554C774.264 333.707 771.347 333.615 768.852 333.594C767.797 329.429 766.217 324.671 763.147 321.531C756.886 314.923 746.526 316.265 740.989 322.962C736.117 329.168 735.432 340.228 743.034 344.732C751.089 349.506 764.739 351.442 771.617 357.801C782.487 367.849 780.411 388.046 770.764 398.253C764.899 404.461 758.504 405.714 750.297 405.988C741.198 405.451 736.3 403.387 731.128 395.599C727.072 389.486 726.101 384.672 725.453 377.498C728.283 377.359 731.433 377.41 734.293 377.398C736.247 405.752 772.596 401.041 769.264 374.558C767.573 361.114 747.695 358.915 738.73 352.998C731.467 348.204 726.889 340.02 728.298 331.055C730.328 317.81 736.521 311.052 749.958 309Z" fill="#202A44"/>
<path d="M190.045 312.2C209.375 312.529 229.6 312.233 249.003 312.244C248.905 315.147 248.964 318.157 248.982 321.071C243.118 321.265 236.816 321.193 230.917 321.229C230.673 343.326 230.874 365.781 230.872 387.905L230.844 405.912L221.074 405.867C220.913 396.52 221.179 387.334 221.22 378.003L221.185 321.179C211.512 320.81 199.841 321.136 190.061 321.185L190.045 312.2Z" fill="#202A44"/>
<path d="M634.477 312.11C637.601 312.23 640.605 312.15 643.725 312.087L643.793 398.764L677.766 398.821C677.598 401.677 677.85 404.568 677.427 407.409C663.389 407.089 648.562 407.299 634.485 407.36C634.314 391.817 634.272 376.27 634.348 360.726C634.279 344.52 634.321 328.315 634.477 312.11Z" fill="#202A44"/>
<path d="M695.807 312.163L705.26 312.258L705.272 405.947L695.773 405.901C695.571 391.283 695.769 376.145 695.773 361.472C695.701 345.036 695.712 328.599 695.807 312.163Z" fill="#202A44"/>
<path d="M304.772 446.977C313.439 446.599 330.896 445.461 330.638 458.559C330.558 462.618 329.415 464.576 326.577 467.356C320.322 471.637 311.7 470.921 304.361 470.78C305.067 463.308 304.465 454.601 304.772 446.977Z" fill="#202A44"/>
<path d="M307.301 448.546C314.254 448.466 327.226 447.563 327.802 457.736C328.015 461.503 327.283 463.235 324.729 465.947C319.181 469.859 313.996 469.474 307.474 469.607C307.248 462.702 307.325 455.477 307.301 448.546Z" fill="none"/>
<path d="M490.284 446.851C491.107 446.813 493.62 446.714 493.837 447.087C495.73 450.321 504.559 468.423 505.157 470.411L504.692 470.822C500.982 470.929 499.813 466.084 498.503 463.072L494.832 462.999C491.648 462.992 488.418 463.045 485.23 463.072C484.099 466.122 483.288 471.127 479.536 470.849L479.304 470.259C480.092 467.912 488.848 448.858 490.284 446.851Z" fill="#202A44"/>
<path d="M492.207 448.523C493.312 449.707 496.092 457.93 498.115 461.301L490.924 461.274L485.931 461.434C488.079 457.804 489.671 451.848 492.207 448.523Z" fill="none"/>
<path d="M259.38 446.638L259.617 446.931C259.81 449.753 261.396 469.828 260.832 470.826C259.557 470.94 260.103 471.108 259.058 470.628C257.537 467.505 257.499 450.762 257.817 446.653C255.36 450.61 247.175 470.053 244.703 470.997C241.198 469.63 236.633 453.204 233.144 448.622L232.408 448.5C232.835 451.688 232.299 469.497 230.442 470.997C229.123 471.005 229.639 471.249 228.74 470.536C229.069 466.24 229.091 446.264 233.564 446.432C237.443 448.858 243.473 464.645 244.735 469.375C246.144 464.923 252.569 450.869 255.389 447.331C256.607 446.546 257.91 446.683 259.38 446.638Z" fill="#202A44"/>
<path d="M280.618 446.801C282.019 446.771 283.23 446.516 284.284 447.346C285.735 450.039 295.076 469.15 295.22 470.716C294.231 471.241 294.717 471.028 293.33 470.91C290.991 469.485 289.793 465.654 288.661 462.996L283.347 463.018C280.674 463.026 278.215 462.946 275.543 462.832C274.456 465.646 273.454 469.085 271.125 470.978C269.827 471.222 270.393 471.348 269.349 470.7C269.37 469.752 279.35 448.69 280.618 446.801Z" fill="#202A44"/>
<path d="M281.962 448.534C282.966 449.608 286.516 458.345 288.47 461.365C286.612 461.274 284.441 461.289 282.555 461.259L276.296 461.255C277.926 457.404 279.992 452.095 281.962 448.534Z" fill="none"/>
<path d="M394.757 446.295C395.591 446.436 397.351 446.752 397.929 447.247C404.499 452.907 411.926 462.992 417.334 469.874C416.336 465.662 414.741 449.216 417.163 446.177L418.321 446.226C419.204 448.23 419.094 467.231 419.128 471.306C414.843 470.826 413.225 468.529 410.585 465.353C405.718 459.495 400.946 453.55 396.159 447.628C396.825 450.953 398.463 467.707 397.484 470.27C396.421 471.119 397.019 470.864 395.606 471.005L394.966 470.449C394.448 467.391 394.757 450.53 394.757 446.295Z" fill="#202A44"/>
<path d="M340.159 446.756C343.11 446.855 355.936 446.356 357.385 447.251L357.453 448.226C356.369 448.93 345.354 448.58 343.204 448.565L343.325 457.42C345.955 457.393 355.671 456.856 357.093 458.128L357.038 458.421C355.448 459.899 346.578 459.149 343.671 459.096C342.922 460.177 343.248 467.581 343.266 469.287C347.072 469.295 355.374 469.002 358.705 469.954L358.672 470.27C355.464 471.134 343.971 470.815 340.043 470.792C340.61 464.153 340.675 453.356 340.159 446.756Z" fill="#202A44"/>
<path d="M452.998 446.931C456.536 446.855 476.238 446.283 477.876 447.43L477.788 448.275C476.573 448.881 468.846 448.637 466.896 448.633L466.884 460.543C466.873 462.424 467.269 469.706 466.732 470.712C465.513 470.933 465.406 471.051 464.214 470.658C463.677 468.537 464.043 451.871 464.07 448.58C461.586 448.569 455.245 449.186 453.329 448.211L452.998 446.931Z" fill="#202A44"/>
<path d="M533.226 446.428C538.387 446.95 542.58 455.5 545.162 459.709C547.87 455.763 551.416 450.267 554.687 446.961C556.066 446.52 556.017 446.569 557.365 446.786L557.593 447.277C557.38 448.047 553.804 451.448 552.543 453.047C550.506 455.573 548.217 458.231 546.613 461.023C546.487 463.533 547.002 469.036 546.316 470.925C545.196 471.173 545.764 471.127 544.534 470.727C542.953 468.933 543.791 464.115 543.837 461.167C542.386 459.202 533.348 447.453 533.226 446.428Z" fill="#202A44"/>
<path d="M514.819 446.55C516.049 446.607 516.312 446.561 517.508 446.938C517.946 448.645 517.565 466.816 517.607 469.501C520.063 469.394 530.13 468.876 531.851 469.782L531.961 470.773C526.744 470.78 519.1 470.575 514.084 471.009C514.629 465.654 514.503 460.954 514.522 455.599C514.53 453.329 514.335 448.549 514.819 446.55Z" fill="#202A44"/>
<path d="M442.993 446.535C444.352 446.619 444.531 446.584 445.872 446.996C446.123 448.26 445.925 453.847 445.914 455.451C445.876 460.687 445.861 465.566 446.161 470.807C444.977 470.955 444.189 471.203 443.141 470.689C442.65 467.432 442.981 450.709 442.993 446.535Z" fill="#202A44"/>
<path d="M382.143 446.078C382.6 446.306 382.661 446.432 383.049 446.786C383.685 452.488 382.988 463.689 383.065 469.79C383.08 470.864 382.596 470.933 381.781 471.546L380.83 471.016C380.037 469.272 380.448 450.835 380.642 447.601C380.702 446.607 381.263 446.584 382.143 446.078Z" fill="#202A44"/>
</svg>
