<svg width="1429" height="367" viewBox="0 0 1429 367" fill="none" xmlns="http://www.w3.org/2000/svg">
<path d="M8.0119 253.831C18.2742 252.454 31.9298 252.296 42.4032 252.196L90.484 252.181C119.124 252.156 146.508 253.016 175.014 253.567L299.642 255.19L612.295 256.376L729.353 256.199C749.116 256.174 773.643 255.442 792.979 256.427C759.906 257.243 726.116 256.637 692.945 257.035C844.097 257.954 995.254 257.802 1146.41 256.577L1298.8 255.662L1343.62 255.548C1351.2 255.533 1362.89 255.213 1370.13 256.03C1367.55 256.677 1352.42 256.662 1348.99 256.681L1304.99 256.905C1247.63 257.236 1189.23 258.279 1131.96 257.888C1123.22 257.169 1110.71 257.952 1101.66 257.719C1097.44 257.61 1082.25 257.572 1078.81 258.219C1070.56 258.212 1062.31 258.256 1054.06 258.351C1048.92 258.034 1041.35 258.279 1036.06 258.285L1001.01 258.369C994.149 258.278 987.292 258.274 980.436 258.357L896.476 258.294C892.98 258.294 868.113 258.087 865.967 258.635L865.977 258.97C871.767 259.669 890.799 259.25 897.807 259.278L980.294 258.86L1000.89 258.832C1018.17 258.838 1036.79 259.229 1053.94 258.83L1095.11 258.857L1199.33 259.39C1211.26 259.361 1225.6 259.701 1237.35 259.243L1240.05 259.392L1240.05 259.868C1236.76 259.864 1230.83 259.682 1227.81 260.17L1230.44 260.516C1229.62 261.157 1227.91 261.063 1226.81 261.122C1233.68 261.701 1240.56 261.322 1247.43 261.509C1240.49 262.149 1231.45 261.938 1224.36 261.911L1190.08 261.757C1185.56 261.738 1175.94 261.496 1171.67 261.939C1161.66 261.809 1150.98 261.658 1141.01 261.942C1135.88 261.768 1129.91 261.935 1124.72 261.948C1118.56 261.785 1111.9 261.947 1105.71 261.977C1094.77 261.361 1082.04 262.112 1070.9 261.916C1068.38 261.871 1054.67 261.819 1052.71 262.098C1054.11 262.317 1057.32 262.912 1058.55 262.84C1062.5 262.898 1066.45 262.996 1070.39 262.878C1073.64 263.299 1087.5 263.047 1091.23 262.967C1102.17 262.73 1114.47 263.119 1125.29 262.569C1129.34 262.549 1134.22 262.388 1138.21 262.526C1148.29 263.535 1162.63 262.574 1173.21 263.008C1175.92 263.119 1191.21 263.169 1193.12 262.887L1208.4 262.934L1207.09 263.987C1200.73 263.803 1194.72 263.98 1188.38 264.154C1194.6 264.786 1200.88 264.297 1206.97 264.64C1212.82 264.972 1219.78 264.685 1225.74 264.679C1236.98 264.667 1248.21 264.761 1259.45 264.961C1262.66 265.016 1273.02 264.982 1275.91 265.417L1228.01 265.582C1219.98 265.083 1209.35 265.519 1201.12 265.481C1194.78 265.452 1183.56 265.245 1177.54 265.903C1132.01 265.696 1086.47 266.092 1040.94 267.091L1032.64 267.065C1030.35 267.029 1026.75 266.807 1024.65 267.384L1024.64 267.403L1025.54 267.041L1025.9 267.924C1027.54 267.944 1031.3 268.044 1032.75 267.701L1041.09 267.669L1068.82 267.636C1078.56 269.151 1095.44 267.051 1105.7 268.388C1101.06 268.458 1080.74 268.344 1078.2 268.975C1054.39 269.057 1030.65 269.782 1006.85 269.591C955.487 269.18 904.128 269.104 852.765 270.197L852.166 270.151C848.949 269.925 846.449 270.374 843.291 270.827C844.745 271.277 938.316 271.78 944.839 270.718L1002.31 270.553C1006.04 271.009 1028.1 270.77 1031.58 270.217L1105.31 269.572C1113.01 269.988 1121.15 269.512 1128.57 269.942C898.009 274.022 667.425 275.931 436.837 275.67L257.721 275.985C235.82 276.147 213.917 276.094 192.016 275.826C180.154 275.667 161.993 275.583 150.524 273.767C155.361 273.18 162.085 272.393 166.981 272.614C169.575 273.18 172.144 272.641 174.714 272.177C169.666 271.449 150.31 271.257 145.162 271.736C136.531 272.447 118.847 271.095 109.794 270.78C85.9857 269.954 62.0909 267.661 38.3656 266.158C44.9306 264.615 49.5119 264.866 55.7685 263.641C53.306 263.295 50.7977 263.093 48.5365 262.052C50.5728 261.47 51.2093 261.362 53.2824 261.141C38.011 260.984 22.6217 261.314 7.52223 259.276C5.41035 258.991 1.72192 259.123 0 258.561L1.77791 258.248C5.84206 258.243 20.6395 258.711 23.5382 258.279C28.0994 258.326 44.8702 258.783 48.4987 257.858L23.5456 257.754C19.6734 257.613 12.5082 256.997 9.01676 257.481C7.83607 257.316 7.53402 257.135 6.46826 256.67C8.09146 255.557 15.6854 255.77 18.0591 255.778C21.0805 255.818 26.3848 255.913 29.227 255.207C26.1009 254.761 24.9581 254.635 21.8335 254.784C16.817 254.693 13.0166 254.364 8.0119 253.831ZM86.5235 257.902C90.2227 258.065 95.3787 258.44 98.9428 258.258C102.207 258.287 105.298 258.307 108.569 258.186C110.636 258.346 116.285 258.366 118.371 258.116L118.542 257.779C117.215 256.935 109.07 257.283 107.117 257.375C98.1472 257.245 89.1766 257.22 80.206 257.302C76.4891 256.984 58.4 257.44 54.8157 258.164C60.26 258.371 82.4893 259.343 86.5235 257.902ZM169.113 258.427C165.493 258.393 157.401 258.119 154.163 258.586C161.56 259.787 186.992 259.544 195.426 259.189C191.412 258.466 181.905 258.692 177.619 258.697C176.401 258.018 170.86 258.372 169.113 258.427ZM212.475 256.309L224.17 256.118C220.635 255.603 216.345 255.687 212.722 255.644C207.358 255.209 188.103 254.719 183.497 255.713C192.643 256.334 203.309 256.375 212.475 256.309ZM157.827 255.496C160.563 255.634 172.575 256.187 174.641 255.496C171.75 254.858 161.137 255.228 157.827 255.496ZM250.042 256.249C251.99 257.105 263.096 256.932 265.47 256.6C262.25 255.708 253.055 255.301 250.042 256.249Z" fill="black"/>
<path d="M86.5235 257.902C82.4893 259.343 60.26 258.371 54.8157 258.164C58.4 257.44 76.4891 256.984 80.206 257.302C82.6538 257.7 84.0423 257.809 86.5235 257.902Z" fill="black" fill-opacity="0.505882"/>
<path d="M177.619 258.697C181.905 258.692 191.412 258.466 195.426 259.189C186.992 259.544 161.56 259.787 154.163 258.586C157.401 258.119 165.493 258.393 169.113 258.427C171.583 258.728 175.154 259.04 177.619 258.697Z" fill="black" fill-opacity="0.341176"/>
<path d="M212.475 256.309C203.309 256.375 192.643 256.334 183.497 255.713C188.103 254.719 207.358 255.209 212.722 255.644L212.475 256.309Z" fill="black" fill-opacity="0.486275"/>
<path d="M80.206 257.302C89.1766 257.22 98.1472 257.245 107.117 257.375C105.01 257.572 100.864 257.837 98.9428 258.258C95.3787 258.44 90.2227 258.065 86.5235 257.902C84.0423 257.809 82.6538 257.7 80.206 257.302Z" fill="black" fill-opacity="0.223529"/>
<path d="M265.47 256.6C262.25 255.708 253.055 255.301 250.042 256.249C251.99 257.105 263.096 256.932 265.47 256.6Z" fill="black" fill-opacity="0.713725"/>
<path d="M107.117 257.375C109.07 257.283 117.215 256.935 118.542 257.779L118.371 258.116C115.81 257.625 111.077 257.565 108.569 258.186C105.298 258.307 102.207 258.287 98.9428 258.258C100.864 257.837 105.01 257.572 107.117 257.375Z" fill="black" fill-opacity="0.513725"/>
<path d="M174.641 255.496C171.75 254.858 161.137 255.228 157.827 255.496C160.563 255.634 172.575 256.187 174.641 255.496Z" fill="black" fill-opacity="0.0980392"/>
<path d="M212.722 255.644C216.345 255.687 220.635 255.603 224.17 256.118L212.475 256.309L212.722 255.644Z" fill="black" fill-opacity="0.0980392"/>
<path d="M118.371 258.116C115.81 257.625 111.077 257.565 108.569 258.186C110.636 258.346 116.285 258.366 118.371 258.116Z" fill="black" fill-opacity="0.807843"/>
<path d="M177.619 258.697C176.401 258.018 170.86 258.372 169.113 258.427C171.583 258.728 175.154 259.04 177.619 258.697Z" fill="black" fill-opacity="0.631373"/>
<path d="M1130.84 58.8567C1172.79 54.8291 1202.15 87.5751 1205.66 129.326C1209.74 177.92 1193.63 222.237 1141.78 228.031C1122.12 228.666 1105.71 225.875 1089.98 212.011C1073.39 197.167 1066.44 175.954 1064.87 153.866C1061.49 106.263 1080.11 62.5973 1130.84 58.8567ZM1142.81 204.373C1179.78 197.879 1182.56 153.903 1178.07 122.79C1174.2 95.9187 1155.58 78.7044 1129.1 82.4188C1091.27 88.2142 1088.58 130.242 1092.52 162.144C1095.96 190.019 1115.01 208.748 1142.81 204.373Z" fill="black"/>
<path d="M236.516 58.8587C278.579 54.7711 307.852 87.6141 311.356 129.369C315.437 178.003 299.225 222.391 247.39 228.035C200.862 229.646 174.317 201.882 170.62 154.12C166.924 106.372 185.96 62.5998 236.516 58.8587ZM248.439 204.389C285.467 197.954 288.216 154.175 283.842 123.036C280.084 96.2831 261.331 78.5709 234.88 82.4095C223.658 84.1446 214.562 88.514 207.641 98.4242C196.11 114.933 195.493 142.602 198.225 162.092C200.104 175.502 205.81 189.363 216.584 197.365C225.457 203.956 237.784 206.259 248.439 204.389Z" fill="black"/>
<path d="M882.582 58.8536C924.854 54.9667 953.797 87.5576 957.353 129.489C961.493 178.286 944.868 222.677 893.161 228.046C846.862 229.625 820.37 201.809 816.647 154.265C812.91 106.461 831.818 62.6722 882.582 58.8536ZM894.851 204.317C931.494 197.894 934.211 153.647 929.81 122.863C926.004 96.2559 907.213 78.4082 880.839 82.4111C846.553 87.6711 842.191 120.725 843.07 150.588C844.008 182.466 860.648 209.938 894.851 204.317Z" fill="black"/>
<path d="M559.748 59.3777C561.124 59.3253 562.499 59.2981 563.874 59.2966C582.346 59.2817 604.059 61.8766 617.757 76.1388C634.357 93.4239 630.556 123.561 630.546 146.371L630.565 223.798H604.933V206.661C599.398 210.576 592.63 216.091 586.766 219.231C573.201 226.496 555.628 229.925 540.535 227.445C526.405 225.124 515.846 217.172 507.654 205.369C503.057 198.116 500.738 189.751 500.174 181.099C496.166 119.67 563.319 120.257 604.933 117.642C605.468 89.306 589.963 83.449 565.632 83.2031C547.328 83.0183 530.722 88.0376 513.67 94.6605V66.6371C530.403 62.413 542.691 60.1836 559.748 59.3777ZM538.109 198.647C561.428 209.808 585.916 199.332 604.933 184.215V139.584L598.73 139.955C578.898 141.461 546.404 141.234 532.5 157.484C522.717 168.916 525.182 189.968 538.109 198.647Z" fill="black"/>
<path d="M76.4846 58.8516C77.8588 58.7592 79.235 58.7058 80.6116 58.6924C93.4107 58.636 107.176 62.3653 116.294 72.2006C134.955 92.3295 131.377 125.004 131.375 150.897L131.361 223.798H105.487L105.48 158.479C105.489 144.337 105.889 130.281 104.746 116.115C103.785 104.205 100.568 91.1463 88.3672 86.8411C74.5712 81.9732 61.7348 84.8458 48.844 90.8717C41.7417 94.4891 35.0106 98.8533 28.755 103.898V223.798H2.87117V63.1922H28.755V80.9296C43.4552 68.5862 57.5518 60.5214 76.4846 58.8516Z" fill="black"/>
<path d="M333.025 63.1922H361.108C377.306 104.614 393.224 149.083 408.68 190.98C414.068 177.749 419.593 161.506 424.603 147.926L455.854 63.1922H482.945L420.806 223.798H394.791C387.679 204.03 379.123 182.955 371.55 163.251L333.025 63.1922Z" fill="black"/>
<path d="M735.993 59.872C756.959 57.9096 775.24 63.2061 793.996 72.8637V104.016C785.824 97.031 776.634 91.4553 766.782 87.4991C740.3 77.1613 710.842 83.3699 700.459 113.866C696.171 126.613 695.715 139.92 696.545 153.251C699.531 201.457 738.031 214.925 775.647 195.348C783.093 191.105 787.174 188.24 793.942 182.864C794.276 192.476 793.991 203.915 793.996 213.671C782.071 219.733 767.229 225.569 754.003 226.872C733.905 229.066 711.146 224.719 695.091 211.153C662.882 183.936 661.257 118.825 686.398 86.1773C698.863 69.986 716.392 61.9002 735.993 59.872Z" fill="black"/>
<path d="M1246.41 63.1922H1272.18V87.0166C1274.85 84.7133 1277.59 82.506 1280.4 80.3978C1301.87 64.1311 1316.17 60.6559 1342.21 64.9807V92.9429C1338.26 91.9892 1334.28 91.2515 1330.26 90.7326C1305.56 87.4576 1291.28 94.3377 1272.18 109.783V223.798H1246.41V63.1922Z" fill="black"/>
<path d="M998.382 0.112396H1024.27V223.814H998.382V0.112396Z" fill="black"/>
<path d="M1393.52 0.343395C1409.89 -2.18781 1425.15 9.54421 1427.71 26.6302C1430.28 43.7157 1419.18 59.7673 1402.86 62.5942C1386.34 65.456 1370.75 53.688 1368.15 36.3921C1365.56 19.0961 1376.95 2.90591 1393.52 0.343395ZM1402.35 58.4676C1416.62 55.9138 1426.19 41.7409 1423.72 26.8355C1421.24 11.9307 1407.66 1.95574 1393.41 4.57266C1379.19 7.1824 1369.69 21.325 1372.15 36.1852C1374.62 51.0454 1388.13 61.0142 1402.35 58.4676Z" fill="black"/>
<path d="M1386.65 14.2026C1392.59 14.1272 1399.41 13.619 1405.18 15.1733C1410.32 16.5583 1412.5 21.4749 1410.83 26.6122C1409.73 29.9786 1406.8 31.5145 1403.97 33.0272C1406.51 35.7397 1414.89 44.5242 1416.69 47.08C1415.38 47.7078 1412.43 47.484 1410.84 47.4717C1408.61 47.4789 1400.11 36.9485 1398.03 34.579L1392.36 34.5739V47.4712L1386.65 47.4758V14.2026ZM1392.36 29.9884C1396.9 30.0125 1399.72 30.4683 1403.77 28.2415C1408.51 17.9191 1399.02 18.6557 1392.36 18.7255V29.9884Z" fill="black"/>
<path d="M482.625 297.098L484.89 297.94C486.918 300.987 485.125 352.047 485.631 359.111C485.837 361.919 485.528 366.58 481.432 365.681C480.013 364.567 479.762 363.674 479.089 362.026C472.641 362.724 474.659 369.808 461.899 363.145C455.048 358.233 455.343 350.887 455.441 343.054C455.495 338.701 455.873 334.841 458.285 331.155C460.465 327.825 463.839 325.553 467.646 324.854C472.022 324.025 476.093 325.359 479.649 328.002C480.199 322.002 480.489 300.493 482.625 297.098ZM474.895 358.602C482.095 355.81 481.923 352.094 482.223 344.717C482.611 335.082 478.328 330.75 469.119 331.786C466.226 332.911 464.547 333.347 463.068 336.504C461.232 340.426 461.241 349.162 462.798 353.017C463.78 355.44 465.701 357.319 468.078 358.192C470.263 358.967 472.636 358.9 474.895 358.602Z" fill="black"/>
<path d="M169.91 324.689C176.632 325.058 184.086 329.023 184.891 336.848C186.296 350.502 186.811 362.601 171.399 365.717C164.545 365.291 156.026 362.283 155.387 353.675C154.308 339.158 152.985 326.983 169.91 324.689ZM171.457 358.839C179.588 357.139 180.327 355.055 180.51 346.786C180.694 338.485 181.209 329.138 170.326 329.792C159.295 331.638 160.921 341.76 161.54 351.308C161.898 356.826 166.741 358.741 171.457 358.839Z" fill="black"/>
<path d="M273.542 324.703C280.396 325.15 287.912 328.75 288.692 336.94C289.997 350.641 290.594 362.735 275.005 365.727C267.241 365.363 259.501 361.539 258.986 352.33C258.202 338.311 257.274 326.995 273.542 324.703ZM276.28 358.762C284.169 356.524 284.272 352.776 284.572 345.02C284.891 336.745 283.755 329.17 273.876 329.813C265.366 331.525 265.498 335.036 265.18 343.182C264.813 352.556 265.465 359.203 276.28 358.762Z" fill="black"/>
<path d="M720.9 296.989C722.56 297.407 722.717 297.366 723.822 298.621C727.034 307.789 729.755 323.632 732.624 333.629C735.02 342.002 736.98 352.237 739.318 360.81C739.632 361.965 739.45 363.166 739.067 364.3C737.722 365.789 738.409 365.358 736.386 365.84C728.1 363.315 735.782 345.405 722.025 345.359C707.566 344.922 710.734 351.96 706.176 362.555C705.7 363.664 704.246 365.178 703.018 365.522L702.478 365.009C702.104 363.484 707.767 341.76 708.578 339.609C711.063 333.034 717.05 300.693 720.9 296.989ZM722.025 342.089C723.739 342.089 724.957 342.34 726.263 341.303C727.481 338.598 722.58 315.513 721.205 313.127C719.879 318.475 714.982 336.355 715.419 340.523C717.04 342.813 719.422 342.166 722.025 342.089Z" fill="black"/>
<path d="M1310.84 324.737C1313.51 324.682 1316.18 324.571 1318.96 324.597C1326.51 324.667 1331.72 323.604 1331.98 333.511C1332.22 343.013 1332.4 352.602 1331.84 362.067C1331.65 365.199 1329.92 366.195 1327.24 365.106C1325.6 363.346 1325.79 362.724 1325.2 360.44C1319.89 364.347 1318.69 366.02 1312.32 366.195C1310.74 365.784 1308.78 365.23 1307.41 364.347C1304.63 362.514 1302.7 359.578 1302.05 356.21C1301.51 353.202 1302.11 350.086 1303.73 347.53C1308 340.826 1318.26 339.953 1325.54 338.532C1325.56 336.873 1325.69 334.333 1325.41 332.782C1324.42 327.357 1310.78 330.616 1309.94 325.922L1310.84 324.737ZM1313.43 359.141C1320.56 358.602 1322.04 357.288 1327.53 352.591C1327.62 348.274 1328.25 343.167 1322.32 344.178C1317.95 344.989 1311.86 345.23 1309.31 349.445C1306.64 353.854 1308.2 358.561 1313.43 359.141Z" fill="black"/>
<path d="M882.995 297.21C884.9 297.294 885.642 297.154 887.027 298.386C888.667 301.842 887.955 324.501 887.95 330.104C891.133 326.939 895.317 323.62 899.831 324.665C913.661 327.875 911.648 341.411 911.373 352.889C911.279 356.688 912.885 363.417 909.634 365.645L908.662 365.337C906.481 362.55 906.25 346 905.975 340.903C905.366 335.79 901.609 331.181 896.447 331.54C880.907 332.628 892.528 357.838 885.868 365.229C884.124 365.866 884.846 365.774 882.911 365.245C881.507 363.546 881.237 356.169 881.443 353.931C882.302 344.63 879.601 302.252 882.995 297.21Z" fill="black"/>
<path d="M532.878 324.689C550.476 325.56 556.816 349.707 534.99 346.134C533.021 345.81 528.262 346.124 526.003 346.124C525.978 347.001 525.963 347.879 525.953 348.757C525.855 358.484 528.773 361.267 537.849 361.005C539.234 361.123 539.42 361.364 540.643 362.17C540.992 363.52 541.051 362.878 540.408 364.146C533.281 369.495 518.449 362.73 518.1 351.842C517.658 338.023 516.892 326.739 532.878 324.689ZM535.884 340.282C538.679 340.195 538.306 340.626 540.388 339.23C543.187 333.367 537.387 330.837 532.594 330.842C529.19 331.499 524.888 333.306 525.506 337.659C528.075 341.226 532.063 340.415 535.884 340.282Z" fill="black"/>
<path d="M1048.57 324.688C1066.14 325.564 1072.52 349.701 1050.68 346.134C1048.7 345.81 1043.94 346.118 1041.67 346.118C1041.64 347.13 1041.63 348.141 1041.62 349.152C1041.56 358.762 1044.81 361.256 1053.54 361.005C1055.31 361.154 1056.02 361.585 1056.75 363.104L1056.12 364.162C1048.66 369.434 1034.24 362.714 1033.86 351.842C1033.37 338.085 1032.66 326.731 1048.57 324.688ZM1051.58 340.282C1054.13 340.205 1053.99 340.585 1055.98 339.378C1059.14 333.84 1053.18 330.631 1048.27 330.847C1044.87 331.478 1040.54 333.342 1041.18 337.669C1043.77 341.226 1047.74 340.415 1051.58 340.282Z" fill="black"/>
<path d="M1196.19 324.195C1204.03 327.378 1194.36 351.755 1201.9 357.001C1208.31 361.472 1212.22 357.781 1216.05 352.853C1216.06 349.224 1215.36 327.739 1216.83 326.282C1224.53 318.662 1222.64 339.733 1222.59 342.761C1222.55 348.31 1224.45 363.366 1219.57 365.65C1218.03 365.455 1217.98 365.44 1216.74 364.403C1215.78 362.458 1215.96 359.763 1215.93 357.509C1211.54 362.57 1205.24 370.07 1197.84 364.116C1191.52 359.034 1192.33 349.748 1193.13 342.371C1193.64 337.654 1193.47 327.783 1196.19 324.195Z" fill="black"/>
<path d="M830.964 325.155C832.924 325.061 835.31 324.904 837.27 325.355C842.53 326.565 851.228 333.28 847.599 339.717C847.255 340.328 847.225 340.107 846.489 340.323C841.955 337.135 842.751 330.176 834.618 330.498C822.683 330.975 825.389 345.328 825.586 354.049C829.319 361.344 832.968 362.565 840.099 359.075C842.962 356.534 844.382 350.738 847.648 351.395L848.267 352.443C848.542 354.85 848.046 356.595 846.867 358.7C845.059 361.893 842.108 364.198 838.665 365.101C830.591 367.252 820.016 362.709 819.186 353.603C818.037 341.072 816.52 327.959 830.964 325.155Z" fill="black"/>
<path d="M104.588 325.153C111.476 324.568 119.259 326.521 121.279 334.83C121.683 336.488 121.972 338.747 120.996 340.169C116.816 338.993 114.033 327.101 105.37 330.924C98.9448 333.48 98.8976 339.435 98.8284 345.533C98.711 355.913 102.047 364.706 113.738 359.09C116.857 356.416 117.516 351.426 121.191 351.288L121.895 352.253C122.209 354.655 121.685 356.39 120.557 358.484C118.84 361.708 115.966 364.09 112.568 365.096C108.535 366.251 102.785 365.661 99.239 363.423C92.0099 358.751 92.4854 350.985 92.5399 343.352C92.616 332.592 93.4834 327.438 104.588 325.153Z" fill="black"/>
<path d="M1099.02 313.481C1100.01 313.583 1100.6 313.803 1101.55 314.094C1104.62 317.567 1101.9 319.256 1102.86 323.069C1103.83 326.93 1108.26 323.738 1111.89 325.385C1113.93 328.149 1112.79 331.155 1109.59 331.535C1107.62 331.766 1105.05 331.673 1103.04 331.673C1102.81 337.792 1101.92 352.581 1104.61 357.714C1106.86 362.016 1110.97 359.639 1114.49 360.666C1116.05 362.052 1115.53 361.492 1116.37 363.895C1114.24 365.45 1111.61 365.686 1109.45 365.722C1092.7 366.005 1098.64 343.357 1096.13 332.52C1095.84 331.247 1092.32 332.351 1090.45 330.293C1090 325.708 1094.42 325.308 1095.9 322.448C1096.96 320.392 1097.92 316.24 1099.02 313.481Z" fill="black"/>
<path d="M1147.54 313.471C1148.37 313.567 1149.04 313.807 1149.84 314.047C1152.72 317.173 1150.46 318.711 1151.07 322.612C1151.28 327.279 1159.09 323.362 1160.42 325.607C1164.68 332.767 1153.14 331.709 1151.32 331.72C1148.49 372.745 1159.22 353.788 1164.81 363.32C1161.4 367.154 1154.22 366.107 1149.89 363.299C1142.66 358.608 1147.43 335.102 1143.56 331.904C1141.38 331.792 1139.99 331.981 1138.73 329.957C1138.85 325.808 1143.16 324.466 1144.64 321.731C1145.82 319.551 1145.69 316.704 1147.54 313.471Z" fill="black"/>
<path d="M988.958 313.431L991.055 313.912C993.879 316.66 992.189 318.071 992.572 321.965C993.167 328.017 998.382 322.672 1002.3 326.092C1002.84 327.79 1002.83 328.003 1002.45 329.753C999.871 333.116 997.425 330.441 993.609 332.069C991.752 334.415 992.052 355.276 994.365 358.223C998.137 363.038 1002.63 357.134 1006.27 363.299C1004.22 365.697 1001.56 365.743 998.687 365.702C982.396 365.46 988.515 343.203 985.912 332.567C985.603 331.309 982.136 332.377 980.255 330.216C980.034 325.839 984.552 324.643 986.065 321.773C987.224 319.579 987.199 316.715 988.958 313.431Z" fill="black"/>
<path d="M5.80572 297.113C7.79826 297.771 9.62824 298.255 9.697 300.875C9.86496 307.244 9.80112 313.631 9.80161 320.003L9.76428 359.516C9.73186 363.741 10.0491 363.228 7.41272 365.938C5.55033 365.481 3.40406 365.004 3.37312 362.555C3.11577 342.13 3.21646 321.674 3.33875 301.247C3.35152 299.093 4.36669 298.493 5.80572 297.113Z" fill="black"/>
<path d="M213.56 297.46C216.762 297.394 222.968 296.892 225.597 298.366C226.454 301.676 224.759 360.646 223.779 364.983C223.08 365.163 222.28 365.265 221.56 365.378C219.381 364.018 219.505 361.754 219.526 359.218C219.661 342.782 219.534 326.334 219.754 309.902C219.904 298.647 214.401 304.597 211.903 300.273C212.154 298.719 212.41 298.625 213.56 297.46Z" fill="black"/>
<path d="M617.344 297.467C620.507 297.41 626.725 297.013 629.382 298.098C630.359 301.608 628.802 359.044 627.658 365.122C621.362 366.492 623.748 355.466 623.557 350.595C622.963 335.2 624.736 319.119 622.943 303.875C622.766 302.392 617.364 302.428 615.822 300.504C616.092 298.615 616.043 299.169 617.344 297.467Z" fill="black"/>
<path d="M576.074 297.46C579.08 297.404 585.666 296.968 588.107 298.177C588.912 301.181 587.336 360.671 586.285 365.07L584.384 365.399C583.544 365.07 582.557 364.711 582.488 363.546C581.358 343.855 583.461 323.588 581.668 304.004C581.53 302.462 576.084 302.384 574.502 300.514C574.866 298.491 574.596 299.255 576.074 297.46Z" fill="black"/>
<path d="M328.055 333.003C330.275 330.288 339.376 319.929 342.48 326.98C342.548 332.767 335.943 330.904 332.235 333.147C330.491 334.199 329.234 335.878 327.922 337.448V346.868C327.981 351.76 328.266 358.536 327.721 363.428C327.583 364.711 326.523 365.306 325.609 365.835L324.656 365.471C322.726 362.653 321.783 333.172 321.469 327.724C321.385 326.316 322.986 325.303 324.062 324.414C328.87 325.792 327.986 328.298 328.055 333.003Z" fill="black"/>
<path d="M1261.59 332.926C1264.68 329.372 1269.48 322.223 1274.6 325.636C1275.75 326.404 1275.75 327.203 1275.89 328.405C1275 330.842 1274.24 330.873 1271.89 331.355C1266.24 332.521 1265.27 332.972 1261.44 337.459V346.355C1261.51 351.632 1261.73 357.694 1261.33 362.95C1261.21 364.506 1260.3 365.076 1259.29 365.815L1258.25 365.543C1255.91 362.108 1255.6 333.501 1255.03 327.543C1254.91 326.34 1256.8 325.114 1257.69 324.413C1262.36 325.718 1261.51 328.509 1261.59 332.926Z" fill="black"/>
<path d="M777.302 332.844C779.994 329.701 787.69 320.921 791.761 326.547C791.997 332.895 785.146 330.708 781.074 333.393C779.905 334.163 778.068 336.386 777.101 337.525V345.841C777.057 351.324 778.181 362.427 775.166 366.415L774.287 366.266C773.246 364.747 772.745 361.903 772.646 360.05C772.042 349.044 770.79 337.916 770.834 326.911C770.839 326.152 772.843 324.803 773.398 324.41C774.788 324.823 774.881 324.883 776.114 325.701C777.504 327.793 777.214 330.168 777.302 332.844Z" fill="black"/>
<path d="M1247.43 261.509L1248.09 261.521C1256.33 261.714 1268.97 261.457 1276.33 261.96C1280.04 263.031 1285.57 261.07 1287.54 262.375L1287.67 262.831C1274.77 263.04 1261.88 263.112 1248.98 263.046C1243.54 263.044 1234.08 262.725 1229.09 263.315C1229.8 264.223 1246.31 263.849 1248.81 264.043C1252.52 264.554 1259.91 264.369 1263.97 264.38C1273.82 264.356 1283.66 264.421 1293.51 264.575C1298.46 265.338 1304.98 264.746 1310.47 265.421C1300.27 265.51 1285.89 266.041 1275.91 265.417C1273.02 264.982 1262.66 265.016 1259.45 264.961C1248.21 264.761 1236.98 264.667 1225.74 264.679C1219.78 264.685 1212.82 264.972 1206.97 264.64L1207.09 263.987L1208.4 262.934C1206.91 261.929 1195.43 262.393 1193.12 262.887C1191.21 263.169 1175.92 263.119 1173.21 263.008C1162.63 262.574 1148.29 263.535 1138.21 262.526L1140.91 262.285C1143.62 262.563 1170.28 262.681 1171.67 261.939C1175.94 261.496 1185.56 261.738 1190.08 261.757L1224.36 261.911C1231.45 261.938 1240.49 262.149 1247.43 261.509Z" fill="black" fill-opacity="0.564706"/>
<path d="M373.461 324.269C374.246 324.698 374.639 325.016 375.351 325.538C377.272 329.321 377.336 355.271 377.596 361.215C377.714 363.921 376.869 364.501 375.283 366.02C373.716 365.65 373.524 365.537 372.174 364.624C370.204 361.913 371.466 335.138 371.265 330.06C371.157 327.295 371.589 326.041 373.461 324.269Z" fill="black"/>
<path d="M947.614 324.264C948.616 324.759 948.773 324.955 949.617 325.669C951.435 329.489 951.641 355.548 951.783 361.544C951.842 364.085 950.929 364.629 949.401 366.046C948.493 365.794 947.221 365.409 946.528 364.732C944.465 362.73 945.325 338.793 945.369 334.194C945.403 330.539 944.942 327.004 947.614 324.264Z" fill="black"/>
<path d="M1177.54 265.903C1183.56 265.245 1194.78 265.452 1201.12 265.481C1209.35 265.519 1219.98 265.083 1228.01 265.582L1228.56 265.641C1236.93 266.491 1245.62 265.061 1253.99 266.544C1255.29 266.773 1256.86 266.342 1258.19 266.857C1251.93 267.583 1245 266.631 1238.78 266.656C1228.91 266.695 1218.32 266.378 1208.51 266.783C1212.37 266.839 1243.94 266.934 1244.59 267.261C1243.18 267.668 1197.21 268.398 1195.13 268.005C1192.86 267.491 1184.12 267.541 1181.18 267.463C1175.02 266.845 1158.88 267.879 1154.3 266.538C1163.7 266.163 1174.18 266.496 1183.82 266.293C1182.93 266.084 1178.71 265.959 1177.54 265.903Z" fill="black" fill-opacity="0.392157"/>
<path d="M665.397 297.304C670.455 297.318 672.4 301.04 672.567 305.748C672.784 311.891 671.767 316.099 665.431 316.36C665.22 315.762 665.078 314.916 664.945 314.27C665.677 312.833 665.564 313.274 667.592 312.581C668.658 311.322 668.398 311.959 668.432 310.127C666.384 305.624 656.502 304.476 665.397 297.304Z" fill="black"/>
<path d="M1068.82 267.636C1071.62 267.261 1083.45 267.361 1086.72 267.31C1101.97 267.033 1117.23 266.963 1132.48 267.102C1134.8 267.219 1137.11 267.366 1139.43 267.542C1134.81 269.012 1119.69 267.018 1114.64 268.502L1113.95 269.064C1117.93 270.492 1142.56 267.917 1144.74 269.451C1142.28 269.553 1130.38 270.184 1128.57 269.942C1121.15 269.512 1113.01 269.988 1105.31 269.572C1104.17 268.311 1082.12 269.12 1078.2 268.975C1080.74 268.344 1101.06 268.458 1105.7 268.388C1095.44 267.051 1078.56 269.151 1068.82 267.636Z" fill="black" fill-opacity="0.596078"/>
<path d="M1276.33 261.96C1282.93 260.742 1377.88 260.861 1381.23 262.065L1381.04 261.815C1377.99 263.896 1309.49 261.591 1300.69 262.425C1298.33 262.648 1292.39 262.1 1289.49 262.679L1287.67 262.831L1287.54 262.375C1285.57 261.07 1280.04 263.031 1276.33 261.96Z" fill="black" fill-opacity="0.231373"/>
<path d="M980.294 258.86L897.807 259.278C890.799 259.25 871.767 259.669 865.977 258.97L865.967 258.635C868.113 258.087 892.98 258.294 896.476 258.294L980.436 258.357L980.294 258.86Z" fill="black" fill-opacity="0.34902"/>
<path d="M1287.67 262.831L1289.49 262.679L1291.5 262.99L1290.64 263.983L1248.81 264.043C1246.31 263.849 1229.8 264.223 1229.09 263.315C1234.08 262.725 1243.54 263.044 1248.98 263.046C1261.88 263.112 1274.77 263.04 1287.67 262.831Z" fill="black"/>
<path d="M1052.71 262.098C1054.67 261.819 1068.38 261.871 1070.9 261.916C1082.04 262.112 1094.77 261.361 1105.71 261.977C1110.31 262.635 1119.7 262.341 1124.69 262.259L1125.29 262.569C1114.47 263.119 1102.17 262.73 1091.23 262.967C1087.5 263.047 1073.64 263.299 1070.39 262.878C1067.52 262.167 1061.47 262.357 1058.55 262.84C1057.32 262.912 1054.11 262.317 1052.71 262.098Z" fill="black" fill-opacity="0.407843"/>
<path d="M1237.35 259.243C1243.53 258.586 1314.86 258.525 1315.71 259.218L1316.22 259.079C1314.81 258.754 1316.8 259.19 1315.42 259.118C1304.63 258.563 1264.97 261.015 1257.01 259.787C1253.96 259.184 1243.74 259.381 1240.05 259.392L1237.35 259.243Z" fill="black" fill-opacity="0.411765"/>
<path d="M944.839 270.718C938.316 271.78 844.745 271.277 843.291 270.827C846.449 270.374 848.949 269.925 852.166 270.151L852.765 270.197C856.955 271.074 872.19 270.714 877.401 270.69L926.893 270.471C929.898 270.461 942.255 270.243 944.839 270.718Z" fill="black" fill-opacity="0.223529"/>
<path d="M1181.18 267.463C1184.12 267.541 1192.86 267.491 1195.13 268.005L1144.8 268.46C1136.6 268.561 1122.26 269.045 1114.64 268.502C1119.69 267.018 1134.81 269.012 1139.43 267.542C1153.34 267.602 1167.26 267.576 1181.18 267.463Z" fill="black" fill-opacity="0.972549"/>
<path d="M946.209 310.431C947.402 309.755 948.851 309.813 949.996 310.58C951.14 311.348 951.793 312.705 951.7 314.121C951.606 315.537 950.786 316.789 949.554 317.388C947.727 318.276 945.556 317.487 944.652 315.605C943.748 313.725 944.436 311.433 946.209 310.431Z" fill="black"/>
<path d="M372.002 310.433C373.19 309.761 374.629 309.813 375.769 310.567C376.908 311.322 377.566 312.663 377.493 314.07C377.414 315.478 376.619 316.732 375.405 317.349C373.583 318.274 371.393 317.511 370.469 315.63C369.541 313.749 370.224 311.441 372.002 310.433Z" fill="black"/>
<path d="M1132.48 267.102C1136.06 266.222 1150.48 266.177 1154.3 266.538C1158.88 267.879 1175.02 266.845 1181.18 267.463C1167.26 267.576 1153.34 267.602 1139.43 267.542C1137.11 267.366 1134.8 267.219 1132.48 267.102Z" fill="black" fill-opacity="0.168627"/>
<path d="M1001.01 258.369L1036.06 258.285C1041.35 258.279 1048.92 258.034 1054.06 258.351L1053.94 258.83C1036.79 259.229 1018.17 258.838 1000.89 258.832L1001.01 258.369Z" fill="black" fill-opacity="0.466667"/>
<path d="M1078.81 258.219C1082.25 257.572 1097.44 257.61 1101.66 257.719C1110.71 257.952 1123.22 257.169 1131.96 257.888C1121.47 258.839 1105.8 258.063 1094.96 258.337C1091.45 257.962 1083.1 258.324 1078.81 258.219Z" fill="black" fill-opacity="0.647059"/>
<path d="M1054.06 258.351C1062.31 258.256 1070.56 258.212 1078.81 258.219C1083.1 258.324 1091.45 257.962 1094.96 258.337L1095.11 258.857L1053.94 258.83L1054.06 258.351Z" fill="black" fill-opacity="0.25098"/>
<path d="M145.162 271.736C150.31 271.257 169.666 271.449 174.714 272.177C172.144 272.641 169.575 273.18 166.981 272.614C159.866 271.671 152.491 272.452 145.162 271.736Z" fill="black" fill-opacity="0.858824"/>
<path d="M1141.01 261.942C1150.98 261.658 1161.66 261.809 1171.67 261.939C1170.28 262.681 1143.62 262.563 1140.91 262.285L1141.01 261.942Z" fill="black" fill-opacity="0.215686"/>
<path d="M9.01676 257.481C12.5082 256.997 19.6734 257.613 23.5456 257.754L23.5382 258.279C20.6395 258.711 5.84206 258.243 1.77791 258.248C3.76505 257.734 6.48593 257.947 9.01676 257.481Z" fill="black" fill-opacity="0.509804"/>
<path d="M1002.31 270.553C1004.87 269.929 1028.03 270.058 1031.58 270.217C1028.1 270.77 1006.04 271.009 1002.31 270.553Z" fill="black" fill-opacity="0.572549"/>
<path d="M1293.51 264.575C1296.65 264.434 1312.18 263.938 1314.02 265.164C1312.38 265.608 1312.16 265.632 1310.47 265.421C1304.98 264.746 1298.46 265.338 1293.51 264.575Z" fill="black" fill-opacity="0.321569"/>
<path d="M1206.97 264.64C1200.88 264.297 1194.6 264.786 1188.38 264.154C1194.72 263.98 1200.73 263.803 1207.09 263.987L1206.97 264.64Z" fill="black" fill-opacity="0.572549"/>
<path d="M980.436 258.357C987.292 258.274 994.149 258.278 1001.01 258.369L1000.89 258.832L980.294 258.86L980.436 258.357Z" fill="black" fill-opacity="0.4"/>
<path d="M21.8335 254.784C24.9581 254.635 26.1009 254.761 29.227 255.207C26.3848 255.913 21.0805 255.818 18.0591 255.778L21.8335 254.784Z" fill="black" fill-opacity="0.494118"/>
<path d="M1105.71 261.977C1111.9 261.947 1118.56 261.785 1124.72 261.948L1124.69 262.259C1119.7 262.341 1110.31 262.635 1105.71 261.977Z" fill="black" fill-opacity="0.101961"/>
<path d="M1291.5 262.99C1293.35 262.965 1296 262.713 1297.61 263.396C1295.7 264.191 1292.8 263.999 1290.64 263.983L1291.5 262.99Z" fill="black" fill-opacity="0.835294"/>
<path d="M1032.75 267.701C1031.3 268.044 1027.54 267.944 1025.9 267.924L1025.54 267.041L1024.64 267.403L1024.65 267.384C1026.75 266.807 1030.35 267.029 1032.64 267.065L1032.75 267.701Z" fill="black" fill-opacity="0.576471"/>
<path d="M1240.05 259.392C1243.74 259.381 1253.96 259.184 1257.01 259.787L1240.05 259.868L1240.05 259.392Z" fill="black" fill-opacity="0.788235"/>
<path d="M1208.4 262.934C1206.91 261.929 1195.43 262.393 1193.12 262.887L1208.4 262.934Z" fill="black" fill-opacity="0.266667"/>
<path d="M1032.64 267.065L1040.94 267.091L1041.09 267.669L1032.75 267.701L1032.64 267.065Z" fill="black" fill-opacity="0.203922"/>
<path d="M1070.39 262.878C1067.52 262.167 1061.47 262.357 1058.55 262.84C1062.5 262.898 1066.45 262.996 1070.39 262.878Z" fill="black" fill-opacity="0.133333"/>
</svg>
