<svg width="922" height="199" viewBox="0 0 922 199" fill="none" xmlns="http://www.w3.org/2000/svg">
<path d="M78.2358 0.0361867C80.4603 -0.385313 101.851 2.9972 105.67 3.8527C102.145 4.6777 98.6148 5.4832 95.0803 6.2702C99.7348 7.2362 107.082 8.2182 111.915 9.0252C114.925 9.5282 121.892 7.76969 123.953 8.98869C122.744 10.5677 117.454 12.4377 113.674 15.7712C119.217 15.9107 120.716 16.9527 125.825 19.1207C127.362 18.5292 129.752 17.2972 131.153 18.2842C130.989 18.6462 129.091 22.3802 129.062 22.1387C129.362 24.6662 133.636 27.6262 133.319 30.7187C130.806 29.2797 130.184 28.6287 127.331 28.6427C126.715 29.5677 127.91 31.1707 128.646 32.6357C130.868 37.0602 129.879 43.1107 129.162 47.9027C127.393 44.4577 126.356 43.0752 123.807 40.3362C129.887 61.1772 111.779 59.8292 105.903 80.6507C104.432 75.9057 103.205 71.1047 102.496 66.1897C100.301 50.9807 101.21 38.3812 89.2703 27.1732C96.0878 38.7152 97.8768 49.6502 98.8433 62.7267C99.4478 75.5872 104.547 95.1317 119.376 98.3927C139.508 102.821 148.129 94.9152 166.008 109.489C177.738 102.419 176.915 96.0592 186.084 87.5932C192.703 81.4817 213.234 78.3632 219.327 86.2292C219.025 87.4377 217.448 88.0322 216.11 88.8677C224.352 90.5407 227.457 89.4567 235.02 86.1097L235.679 86.5717C236.348 88.9587 234.73 94.3437 233.538 96.4222C230.166 102.301 222.962 103.77 216.978 105.482C221.638 106.267 222.935 106.205 227.51 105.823C212.506 115.006 201.251 105.792 186.188 105.727C182.43 105.711 173.418 110.912 168.43 112.299C174.83 126.788 166.628 138.529 170.203 152.648C171.801 158.961 182.068 153.392 186.58 155.642C192.309 158.499 182.821 171.809 185.872 178.122C185.952 178.723 189.113 180.006 189.239 180.415C191.518 187.848 194.5 183.32 198.884 184.999C201.003 185.811 202.589 192.297 203.284 194.982C201.148 194.839 198.618 194.487 196.458 194.245C189.222 188.578 192.283 190.187 182.629 187.464C180.143 179.396 182.988 174.401 177.954 166.961C171.637 163.092 164.278 164.929 157.738 160.505C149.765 155.111 148.216 139.095 137.129 138.309C135.291 138.179 131.757 139.135 130.667 140.598C132.795 141.576 138.458 140.454 139.593 141.815C146.592 150.209 140.804 153.232 153.696 160.082C152.852 167.327 150.372 172.328 150.206 180.631C155.084 185.788 152.767 188.702 161.413 187.438C162.606 190.696 162.889 194.581 163.235 198.031C160.417 196.727 159.004 196.064 155.972 195.211C152.295 190.081 152.406 189.157 147.011 187.18C142.492 185.525 146.526 175.333 144.623 170.455C142.086 163.953 136.678 162.924 131.093 159.896C123.875 155.983 120.742 150.243 118.466 142.858C106.213 146.023 100.099 146.181 87.9388 144.395C88.2193 141.815 88.3458 139.366 88.4853 136.782C86.7593 138.787 85.4248 141.109 83.7058 143.107C80.0598 147.345 52.8078 142.488 46.2538 142.98C44.2688 143.129 41.5718 143.351 40.1853 144.955C39.8618 150.753 56.5233 156.25 61.2408 157.731C66.7513 159.462 64.4883 160.837 69.3573 157.241C73.3173 159.524 75.6323 160.966 79.2873 163.686C76.8518 164.225 73.1288 165.638 70.7728 165.678L70.4698 165.682C62.9223 165.831 64.9853 162.093 54.1758 164.001C51.0608 162.023 48.2598 158.315 45.2848 156.61C41.4368 154.621 37.1328 153.687 33.2773 151.732C29.5313 149.833 29.5713 143.511 31.6858 140.397C36.1033 133.891 46.6333 135.574 52.9288 133.784C57.9813 132.348 75.3033 129.779 77.8598 125.936C77.0678 125.504 76.1008 125.377 75.2573 125.715C68.4508 128.438 61.2788 129.139 54.1803 130.822C52.4338 128.367 50.0443 123.918 47.0223 123.479C46.6543 124.495 46.6593 124.712 45.8583 125.37C39.5663 124.989 29.6103 120.311 24.0688 117.13C20.1018 114.853 11.9133 108.415 7.57634 111.169C11.4243 119.535 3.11834 125.281 13.5888 133.278C14.5228 141.451 15.8058 137.498 21.1693 140.502C23.9823 142.078 24.6568 148.347 25.1543 151.535C22.1528 150.284 16.4403 148.072 14.0123 146.295L13.7633 146.109C12.3098 145.045 11.8613 143.743 11.0973 142.096C8.70984 140.823 5.42984 139.4 4.33234 136.872C2.70884 132.561 3.77084 127.726 3.11984 123.077C2.44284 118.244 -1.29416 109.672 0.46734 105.274C3.50884 97.6817 14.1163 103.013 19.7428 103.945C23.6738 104.596 27.9088 105.259 31.8208 106.075C34.2143 106.557 38.9818 108.573 40.9513 107.706C40.7278 106.704 40.2633 104.386 40.5893 103.49C44.5843 92.4912 55.4848 84.2632 59.9398 73.6117C62.1263 68.3842 62.2613 63.8157 62.4428 58.3792C66.3738 51.5732 88.2788 40.1817 81.0708 31.2377C79.6373 33.0387 79.6413 38.0992 77.2223 41.1377C72.5538 47.0942 64.0368 49.9097 60.4918 56.8312C58.9143 59.9102 59.6993 72.0357 52.8313 68.5397C53.1693 65.6462 56.6143 64.9452 54.8363 62.1722C51.9228 62.0192 51.7623 65.6152 46.4198 68.1917C44.2283 65.2997 41.2043 61.9077 38.8198 59.0422C43.5803 51.1677 44.3873 37.1642 44.9663 27.7562C52.2378 17.7607 52.4073 18.4867 46.6193 7.96169C48.7178 8.13219 50.8363 8.59819 52.9078 9.00219C59.5543 -1.72781 66.9803 1.34469 78.2358 0.0361867ZM66.2213 8.70419L66.6158 8.9582C69.0153 10.5242 70.0903 12.6782 71.4993 13.1422L71.8073 12.5232C70.0448 7.58669 66.2203 5.81169 61.4198 3.96169C61.0773 9.47269 62.1313 11.4287 64.6933 16.5642L65.6978 16.2142C66.4553 13.8052 64.0183 11.5957 64.5338 8.98269C65.2078 8.76969 65.5108 8.61219 66.2213 8.70419ZM106.532 15.7952C104.924 13.9677 103.119 12.7827 100.639 12.8867C93.8408 13.1707 88.7968 13.1477 82.0658 12.3542C89.5078 18.1822 96.3183 13.2697 106.532 15.7952ZM54.9283 38.2847C57.1263 36.0907 57.6868 34.9602 57.7098 31.8332L57.2033 30.7452C55.8378 32.0412 54.2333 33.2517 53.8703 35.0482C54.0188 36.6832 54.0908 36.8702 54.9283 38.2847ZM47.1993 62.1292C47.2438 59.8702 47.5443 60.3372 46.5373 58.5612C45.1203 57.6927 44.3538 57.7692 42.7308 57.6872C42.9013 59.4272 42.9503 59.6247 43.8793 61.0977C45.7843 62.2972 44.9978 62.0027 47.1993 62.1292Z" fill="#202A44"/>
<path d="M490.348 31.9222L538.328 31.9857L542.553 83.3747C547.278 70.7722 552.813 58.3287 557.818 45.8257C559.673 41.1932 561.633 36.4152 563.788 31.9182L597.598 31.9682C589.973 53.8742 579.868 75.9142 571.933 97.7772C568.553 107.075 564.378 117.955 560.293 126.937C559.253 127.704 557.873 127.472 556.488 127.453L511.988 127.477C511.173 109.267 508.563 89.7612 508.248 71.7437C505.233 78.5292 502.243 87.0222 499.573 94.0482C495.308 105.159 491.108 116.295 486.973 127.456L452.823 127.452C453.898 124.3 455.238 120.97 456.478 117.872C467.903 89.3337 478.583 60.3122 490.348 31.9222Z" fill="#202A44"/>
<path d="M612.728 31.9162L660.803 31.9442C661.533 36.6482 661.758 45.4987 662.148 50.5807L664.993 83.5147C671.683 66.2812 678.508 49.1007 685.468 31.9742C692.288 31.7212 713.753 31.5317 720.173 32.1267C711.103 55.6012 701.798 78.9842 692.263 102.273C690.898 105.657 683.133 125.51 681.813 127.459L634.433 127.443C634.443 121.775 633.528 113.384 633.043 107.487C632.158 96.2722 631.193 85.0642 630.148 73.8642C624.588 90.4632 615.958 110.845 609.468 127.445L575.948 127.441C577.303 123.331 579.348 118.403 581.028 114.39C592.323 87.4157 601.308 58.7722 612.728 31.9162Z" fill="#202A44"/>
<path d="M282.84 31.8507C294.807 31.6757 306.97 31.8897 319.005 31.9277C331.744 31.9682 347.705 30.8022 359.79 34.8132C374.87 39.8187 370.865 57.4437 362.291 66.8207C354.442 75.4047 344.757 79.0977 333.25 80.0487C338.01 95.6292 342.947 111.936 348.023 127.381C335.667 127.64 322.644 127.454 310.238 127.465C308.651 127.447 308.973 127.678 307.805 126.953C304.807 116.577 299.978 100.262 297.964 89.9837C292.956 101.257 287.449 115.784 282.968 127.436C270.29 127.498 257.611 127.495 244.933 127.426C257.937 96.9987 270.433 62.9082 282.84 31.8507ZM303.812 72.9027C309.133 72.8422 313.136 72.4002 318.185 70.4512C323.034 68.1342 329.109 63.2762 328.605 57.4227C327.955 49.8692 318.634 49.7597 313.291 49.8447L303.812 72.9027Z" fill="#202A44"/>
<path d="M834.823 31.8352L875.493 31.9157C886.463 31.9282 907.838 30.4682 916.533 37.5907C919.253 39.7877 920.958 42.9952 921.268 46.4772C923.158 66.4987 902.643 78.3292 885.318 80.1367C889.543 94.8907 894.693 113.007 899.528 127.419C886.758 127.626 873.543 127.466 860.738 127.48L859.593 127.182C856.978 122.355 851.078 96.6737 848.978 89.8742C847.333 96.5267 837.618 119.808 834.603 127.498L796.868 127.507C800.613 117.267 805.358 106.132 809.433 95.8542L834.823 31.8352ZM855.248 72.9192C860.538 72.8497 864.163 72.4232 869.253 70.7917C873.463 68.8657 878.378 65.4112 879.658 60.8972C882.648 50.3362 871.088 50.0987 864.803 50.2177C861.498 57.5722 858.528 65.8697 855.248 72.9192Z" fill="#202A44"/>
<path d="M735.148 31.8222L821.803 31.8402C819.578 37.2302 816.693 45.0107 814.968 50.5137L765.363 50.4242L758.323 69.8122L803.263 69.8112C801.103 74.4252 797.533 83.4822 795.963 88.2667C785.183 88.2792 760.918 88.9537 750.913 87.9307L748.353 95.5232C746.828 99.2192 744.748 105.689 743.358 109.62C759.443 109.144 776.563 109.392 792.723 109.366C790.218 113.954 786.663 122.472 784.383 127.486L698.123 127.487C699.368 124.753 700.428 121.729 701.563 118.931C713.258 90.1242 723.543 60.6512 735.148 31.8222Z" fill="#202A44"/>
<path d="M390.664 31.8382L476.648 31.8162C474.333 38.0107 472.113 44.2392 469.983 50.4997C453.803 50.1192 436.759 50.5887 420.44 50.4352L413.129 69.7942L458.283 69.8262C455.803 76.0277 453.363 82.2457 450.963 88.4797L405.749 88.4302L403.28 95.7287L398.459 109.82L447.345 109.817C444.718 115.674 442.141 121.552 439.614 127.453L352.905 127.449C355.631 121.749 359.402 111.46 361.766 105.416L380.174 58.1932C383.257 50.2717 387.129 39.3537 390.664 31.8382Z" fill="#202A44"/>
<path d="M312.931 142.913C315.367 142.832 317.682 142.687 319.859 143.864C321.926 144.998 323.448 146.917 324.08 149.188C326.073 156.123 321.507 163.377 314.627 165.294C298.931 166.204 300.568 147.3 312.931 142.913ZM313.285 162.038C319.764 158.684 323.33 148.294 315.027 145.799C308.133 148.72 304.8 159.126 311.954 161.61C312.394 161.762 312.838 161.904 313.285 162.038Z" fill="#202A44" fill-opacity="0.984314"/>
<path d="M578.983 142.906C595.528 142.362 592.488 161.542 580.708 165.258C578.143 165.417 576.038 165.553 573.723 164.317C571.788 163.272 570.348 161.5 569.723 159.392C567.573 152.333 571.993 145.024 578.983 142.906ZM579.633 162.156C585.583 157.959 589.533 146.082 579.728 146.357C574.838 148.813 572.258 154.29 574.888 159.483C575.738 161.166 577.913 161.664 579.633 162.156Z" fill="#202A44" fill-opacity="0.980392"/>
<path d="M367.384 142.914C369.424 142.818 371.586 142.708 373.528 143.442C375.635 144.256 377.33 145.877 378.239 147.944C381.303 154.854 376.749 162.355 370.126 165.129C367.702 165.354 365.75 165.609 363.446 164.707C361.347 163.878 359.68 162.224 358.837 160.13C355.938 152.995 360.476 145.579 367.384 142.914ZM367.795 162.098C374.558 158.923 377.997 148.528 370.119 145.864C362.372 148.5 358.85 159.126 367.795 162.098Z" fill="#202A44" fill-opacity="0.984314"/>
<path d="M416.046 142.939C417.801 142.841 421.711 142.6 423.429 142.883C436.258 145.002 435.904 156.304 426.637 163.499C421.256 165.549 417.492 165.339 411.989 164.802C412.937 157.919 414.657 149.778 416.046 142.939ZM423.77 160.624C430.139 155.699 430.51 146.11 419.79 146.367C418.985 150.167 416.471 158.124 417.808 161.142C420.111 162.507 421.386 161.583 423.77 160.624Z" fill="#202A44" fill-opacity="0.988235"/>
<path d="M245.204 142.814C246.75 142.853 248.254 142.598 249.317 143.347C249.786 148.098 249.413 155.979 249.319 160.966C251.935 155.601 253.258 148.422 256.834 143.9C257.806 142.672 259.281 142.886 260.642 142.897C262.018 144.585 261.363 157.352 261.451 160.701C262.685 156.496 265.941 144.289 269.652 142.658C271.391 142.834 270.839 142.549 271.957 143.557L271.372 145.304C269.133 150.024 265.173 161.582 261.875 164.496C260.589 165.119 259.794 164.9 258.398 164.737C257.199 163.195 257.731 151.051 257.646 147.934C256.229 152.068 253.266 163.141 249.418 164.804C248.083 164.855 247.12 165.08 246.078 164.349C245.352 160.195 245.318 147.64 245.204 142.814Z" fill="#202A44" fill-opacity="0.984314"/>
<path d="M776.423 142.87C777.098 142.838 780.028 142.676 780.458 143.035C784.208 146.16 784.358 151.754 785.823 156.074C786.273 157.408 786.708 158.669 787.188 159.962C787.323 155.789 787.648 146.337 790.448 143.455C792.093 142.824 791.478 142.827 792.973 143.128C793.683 146.192 790.198 160.845 789.343 164.919C787.483 164.976 786.383 165.131 784.648 164.452C782.948 161.096 780.243 151.802 779.098 147.979C778.603 150.687 777.008 163.335 775.798 164.722C774.468 164.759 773.543 164.937 772.393 164.319C772.453 161.078 775.543 146.277 776.423 142.87Z" fill="#202A44" fill-opacity="0.984314"/>
<path d="M839.448 142.927C843.068 142.815 845.703 142.362 848.798 144.278L848.983 145.114C846.423 147.445 842.903 146.911 839.493 146.84C833.208 151.127 830.463 160.429 840.398 161.722C842.773 160.89 843.628 158.89 843.188 156.494C841.688 156.225 841.388 156.174 840.023 155.501C839.863 153.846 839.708 154.525 840.873 152.929L842.238 152.845C844.843 152.691 846.248 152.027 847.878 154.076C848.338 155.902 846.638 161.654 846.133 164.11C824.878 169.182 823.693 149.108 839.448 142.927Z" fill="#202A44" fill-opacity="0.980392"/>
<path d="M634.893 142.917L640.683 142.908C640.968 146.226 643.198 163.423 642.818 164.739C635.848 166.523 639.903 162.397 637.978 159.506C636.343 158.692 634.203 158.933 632.333 158.977L631.883 159C629.168 160.751 631.278 163.629 626.938 165.243C625.238 164.975 625.728 165.29 624.773 164.25C624.603 162.259 633.173 146.192 634.893 142.917ZM633.843 156.207L637.398 155.787C638.198 154.525 637.458 149.235 637.263 147.389L636.723 146.697C635.623 149.033 633.613 152.996 633.013 155.328C633.443 156.022 633.198 155.858 633.843 156.207Z" fill="#202A44" fill-opacity="0.988235"/>
<path d="M895.803 142.548C897.223 142.559 897.658 142.746 898.988 143.171C900.338 144.592 900.088 143.938 900.163 145.609C897.448 148.833 895.563 144.842 892.073 147.305C890.963 151.476 909.913 161.456 890.128 165.559C888.333 165.372 886.063 165.337 884.633 164.346C884.288 162.837 884.638 162.867 885.428 161.183C887.813 160.21 891.338 162.523 893.988 160.51C894.638 156.951 887.423 153.407 886.963 149.161C886.413 144.137 891.928 142.878 895.803 142.548Z" fill="#202A44" fill-opacity="0.980392"/>
<path d="M530.758 142.551C533.223 142.799 533.803 142.69 535.068 144.833L534.553 145.868C530.233 147.912 520.868 144.111 521.243 157.523C521.368 161.95 529.753 160.797 531.588 161.988L532.043 164.599C530.893 164.898 529.723 165.126 528.548 165.282C512.688 167.363 511.393 144.159 530.758 142.551Z" fill="#202A44" fill-opacity="0.984314"/>
<path d="M679.613 142.912C682.423 142.901 694.083 142.287 695.678 143.538C695.508 144.889 695.478 145.164 694.933 146.406C693.643 147.333 690.923 146.888 689.213 146.772L686.718 159.492C686.403 161.694 686.493 163.322 685.048 164.739C683.538 165.002 683.333 164.998 681.823 164.716C681.033 162.324 684.188 149.953 684.888 146.824C683.203 146.915 681.033 147.189 679.508 146.622C678.803 145.152 679.223 144.895 679.613 142.912Z" fill="#202A44" fill-opacity="0.988235"/>
<path d="M733.033 142.844C735.133 142.903 735.628 142.626 737.018 143.693C736.808 148.183 734.078 159.603 733.163 164.968C731.588 164.954 730.268 165.136 728.978 164.34C729.323 159.591 731.903 147.887 733.033 142.844Z" fill="#202A44" fill-opacity="0.988235"/>
</svg>
